<?xml version="1.0" ?>
<!-- Uploaded to: SVG Repo, www.svgrepo.com, Generator: SVG Repo Mixer Tools -->
<svg width="800px" height="800px" viewBox="0 0 91 91" id="Layer_1" version="1.1" xml:space="preserve" xmlns="http://www.w3.org/2000/svg" xmlns:xlink="http://www.w3.org/1999/xlink">
<style type="text/css">
	.st0{fill:#3B6A75;}
</style>
<g>
<path class="st0" d="M18.7,1.7c-10,14.9,1.2,30.7,15.2,37.5c-0.5,8.8,0.7,18.1,0.5,26.8c-3.4-4.9-6.9-9.7-11.9-13.1   c-3.8-2.6-7.6,2.3-5.8,5.8c3.1,6.2,7.9,11.7,11.6,17.6c2.8,4.4,5.8,10,10.1,13c2,1.4,4.9,0.7,6.6-0.9c3.5-3.3,5.1-9.3,7.4-13.6   c2.8-5.2,5.9-10.1,9.1-15.1c3.8-5.9-5.2-10.7-9.2-5.4C49.6,58,47.2,62,44.9,66c-0.2-6.2-1.1-15-0.8-23.2c6.3,1.5,12.9,1.6,19.1-0.6   C70.5,39.7,77.5,33,77,24.6C75.8,5.7,50.3,6.6,41,18.2c-2.5,3.1-4.1,6.4-5.2,9.9C26.2,23.5,18.9,14,21.5,2.9   C21.8,1.1,19.6,0.2,18.7,1.7z M58.3,20c5,0,9.2,3.9,5.5,8.5c-2.1,2.6-7.1,3.1-10.1,3.2c-2.7,0.1-5.3-0.1-8-0.5   C47.4,24.6,51.1,20,58.3,20z"/>
</g>
</svg>