<?xml version="1.0" encoding="UTF-8"?>
<!DOCTYPE svg PUBLIC "-//W3C//DTD SVG 1.1//EN" "http://www.w3.org/Graphics/SVG/1.1/DTD/svg11.dtd">
<!-- Creator: CorelDRAW -->
<svg xmlns="http://www.w3.org/2000/svg" xml:space="preserve" width="30px" height="30px" version="1.1" style="shape-rendering:geometricPrecision; text-rendering:geometricPrecision; image-rendering:optimizeQuality; fill-rule:evenodd; clip-rule:evenodd"
viewBox="0 0 30 30"
 xmlns:xlink="http://www.w3.org/1999/xlink"
 xmlns:xodm="http://www.corel.com/coreldraw/odm/2003">
 <defs>
  <style type="text/css">
   <![CDATA[
    .fil0 {fill:#7A75B5}
   ]]>
  </style>
 </defs>
 <g id="Слой_x0020_1">
  <metadata id="CorelCorpID_0Corel-Layer"/>
  <g id="_2033162476016">
   <path class="fil0" d="M5.01 14.86c0,-0.36 0.06,-0.91 0.1,-1.25 0.13,-1.11 0.43,-2.19 0.87,-3.16l0.71 -1.31c0.58,-0.87 1.05,-1.49 1.84,-2.19l0.72 -0.62c1.66,-1.23 3.83,-2.16 5.9,-2.17 0.27,0 0.33,-0.05 0.62,-0.05 0.29,0 0.35,0.05 0.62,0.05 1.22,0.01 2.75,0.45 3.79,0.91l2.48 1.55c1.13,0.88 2.31,2.51 2.9,3.83 0.43,0.96 0.74,2.06 0.87,3.16l0.09 1.25c0,0.56 -0.16,1.9 -0.29,2.4 -0.17,0.73 -0.39,1.39 -0.67,2.02 -0.3,0.66 -0.59,1.12 -0.98,1.71 -0.1,0.15 -0.17,0.24 -0.28,0.39 -0.12,0.15 -0.19,0.22 -0.3,0.37 -0.13,0.16 -0.21,0.21 -0.32,0.35 -0.27,0.34 -1.04,1.02 -1.4,1.29 -0.14,0.11 -0.23,0.18 -0.39,0.29 -0.58,0.39 -1.04,0.68 -1.71,0.97 -1.03,0.47 -2.58,0.91 -3.79,0.91 -0.27,0.01 -0.33,0.06 -0.62,0.06l-1.25 -0.1c-0.4,-0.04 -0.8,-0.11 -1.15,-0.19 -1.06,-0.26 -2,-0.6 -2.9,-1.14 -0.17,-0.1 -0.27,-0.14 -0.42,-0.25 -1.62,-1.08 -2.62,-2.1 -3.62,-3.78 -0.88,-1.48 -1.42,-3.53 -1.42,-5.3zm10.33 -12.29l0.88 0c0.88,0.03 1.75,0.15 2.59,0.37 1.1,0.27 2.22,0.74 3.16,1.3 0.89,0.54 1.37,0.9 2.11,1.59 0.67,0.61 0.83,0.77 1.44,1.54 1.43,1.78 2.54,4.6 2.54,7.06 0,2.31 -0.23,3.58 -1.16,5.66 -0.26,0.61 -0.99,1.79 -1.42,2.32 -1.07,1.3 -2.07,2.23 -3.54,3.09 -0.31,0.18 -0.63,0.37 -0.97,0.51 -0.74,0.32 -1.35,0.57 -2.2,0.79 -1.37,0.34 -2.01,0.35 -3.37,0.35l-0.06 0c-1.7,0 -3.67,-0.59 -4.81,-1.15 -1.25,-0.62 -1.67,-0.95 -2.7,-1.76 -0.44,-0.34 -0.78,-0.73 -1.12,-1.09l-0.52 -0.58c-0.07,-0.08 -0.11,-0.15 -0.17,-0.22 -0.06,-0.09 -0.1,-0.12 -0.17,-0.21 -0.37,-0.5 -0.99,-1.52 -1.23,-2.08 -0.92,-2.16 -1.14,-3.24 -1.14,-5.63 0,-2.43 0.96,-4.83 2.25,-6.67 0.59,-0.84 1.53,-1.85 2.33,-2.48 0.08,-0.07 0.15,-0.11 0.22,-0.16 0.09,-0.07 0.12,-0.11 0.21,-0.17 0.59,-0.44 1.39,-0.91 2.08,-1.24 1.44,-0.7 3.1,-1.08 4.77,-1.14z"/>
   <path class="fil0" d="M15 15.1c0,0.17 2.24,2.31 2.39,2.46l1.51 1.51c0.12,0.12 0.2,0.2 0.31,0.32 0.2,0.19 0.43,0.47 0.64,0.61l1.07 -1.05c-0.07,-0.22 -0.37,-0.44 -0.53,-0.6l-3.31 -3.31c-0.12,-0.11 -0.54,-0.46 -0.54,-0.61l0 -7.25 -1.54 0 0 7.92z"/>
  </g>
 </g>
</svg>
