<?xml version="1.0" encoding="UTF-8"?>
<!DOCTYPE svg PUBLIC "-//W3C//DTD SVG 1.1//EN" "http://www.w3.org/Graphics/SVG/1.1/DTD/svg11.dtd">
<!-- Creator: CorelDRAW -->
<svg xmlns="http://www.w3.org/2000/svg" xml:space="preserve" width="30px" height="30px" version="1.1" style="shape-rendering:geometricPrecision; text-rendering:geometricPrecision; image-rendering:optimizeQuality; fill-rule:evenodd; clip-rule:evenodd"
viewBox="0 0 30 30"
 xmlns:xlink="http://www.w3.org/1999/xlink"
 xmlns:xodm="http://www.corel.com/coreldraw/odm/2003">
 <defs>
  <style type="text/css">
   <![CDATA[
    .fil0 {fill:#7A75B5}
   ]]>
  </style>
 </defs>
 <g id="Слой_x0020_1">
  <metadata id="CorelCorpID_0Corel-Layer"/>
  <g id="_2033167120032">
   <path class="fil0" d="M14.65 2.89c1.33,0 2.08,0.05 3.25,0.65 0.42,0.21 0.66,0.32 1.02,0.6 0.88,0.66 1.73,1.62 2.16,2.66 0.18,0.44 0.28,0.73 0.4,1.21 0.4,1.61 0.03,3.47 -0.68,4.88 -0.44,0.86 -0.68,1.23 -1.28,1.94 -0.1,0.11 -0.16,0.15 -0.26,0.27l-4.27 4.92c-0.18,-0.12 -0.51,-0.58 -0.65,-0.73l-3.5 -4.03c-1.09,-1.37 -1.71,-1.92 -2.23,-3.92 -0.26,-1.02 -0.38,-2.17 -0.12,-3.28 0.45,-1.86 1.51,-3.39 3.21,-4.32 0.74,-0.42 1.82,-0.85 2.95,-0.85l0 0zm-7.6 6.15c0,1.52 0.03,1.95 0.53,3.45 0.38,1.13 1.22,2.48 2.05,3.35 0.16,0.17 0.21,0.27 0.37,0.44 0.16,0.16 0.2,0.24 0.35,0.4l1.07 1.27c-0.72,0 -1.45,0 -2.18,0 -2.31,0 -1.91,-0.37 -2.62,1.75l-2.15 6.6c-0.08,0.26 -0.23,0.58 -0.11,0.85 0.1,0.22 0.33,0.4 0.69,0.4l20 0c0.3,0 0.64,-0.35 0.64,-0.62 0,-0.18 -0.29,-0.94 -0.36,-1.15 -0.3,-0.9 -2.31,-7.28 -2.46,-7.54 -0.09,-0.14 -0.3,-0.29 -0.52,-0.29l-2.59 0c-0.52,0 -0.79,0.81 -0.3,1.17 0.19,0.14 0.39,0.1 0.7,0.09 0.56,0 1.12,0 1.67,0l1.7 5.22c0.11,0.35 0.51,1.51 0.55,1.81l-18.18 0c0.03,-0.26 0.44,-1.45 0.55,-1.76 0.2,-0.61 0.36,-1.15 0.56,-1.74l1.13 -3.52c1.33,0 2.66,0.02 3.98,0 0.73,-0.02 0.46,0.14 1.16,0.84 0.17,0.18 0.29,0.34 0.45,0.52 0.12,0.13 0.12,0.16 0.24,0.29 0.13,0.15 0.16,0.11 0.22,0.31 -0.4,0 -1.68,-0.18 -1.68,0.57 0,0.37 0.23,0.69 0.59,0.69l3.78 0c0.64,0 0.87,-1.07 0.05,-1.24 -0.3,-0.07 -0.81,-0.02 -1.14,-0.02 0.05,-0.2 0.89,-1.07 1.05,-1.27l2.93 -3.39c0.12,-0.14 0.14,-0.17 0.27,-0.31 0.66,-0.71 1.5,-1.78 1.93,-2.67 1.68,-3.51 1.2,-7.61 -1.9,-10.14 -0.53,-0.44 -1.14,-0.85 -1.77,-1.12 -2.33,-0.96 -4.29,-0.96 -6.62,0l-1.21 0.69c-0.18,0.13 -0.35,0.26 -0.52,0.39 -0.64,0.55 -0.87,0.78 -1.4,1.48 -0.77,1.02 -1.5,2.79 -1.5,4.2l0 0z"/>
   <path class="fil0" d="M14.99 11.4c-0.98,0 -1.89,-0.82 -1.89,-1.79l0 -0.28c0,-0.96 0.94,-1.78 1.89,-1.78 2.49,0 2.55,3.85 0,3.85zm-3.22 -2.02c0,1.91 1.53,3.28 2.93,3.28l0.52 0c1.55,0 2.99,-1.5 2.99,-3.05l0 -0.28c0,-1.57 -1.47,-3.05 -3.04,-3.05 -1.08,0 -1.79,0.26 -2.47,0.94 -0.46,0.46 -0.93,1.26 -0.93,2.16z"/>
  </g>
 </g>
</svg>
