<?xml version="1.0" encoding="UTF-8"?>
<!DOCTYPE svg PUBLIC "-//W3C//DTD SVG 1.1//EN" "http://www.w3.org/Graphics/SVG/1.1/DTD/svg11.dtd">
<!-- Creator: CorelDRAW -->
<svg xmlns="http://www.w3.org/2000/svg" xml:space="preserve" width="30px" height="30px" version="1.1" style="shape-rendering:geometricPrecision; text-rendering:geometricPrecision; image-rendering:optimizeQuality; fill-rule:evenodd; clip-rule:evenodd"
viewBox="0 0 30 30"
 xmlns:xlink="http://www.w3.org/1999/xlink"
 xmlns:xodm="http://www.corel.com/coreldraw/odm/2003">
 <defs>
  <style type="text/css">
   <![CDATA[
    .fil0 {fill:#7A75B5}
   ]]>
  </style>
 </defs>
 <g id="Слой_x0020_1">
  <metadata id="CorelCorpID_0Corel-Layer"/>
 </g>
 <g id="Слой_x0020_1_0">
  <metadata id="CorelCorpID_1Corel-Layer"/>
 </g>
 <g id="Слой_x0020_1_1">
  <metadata id="CorelCorpID_2Corel-Layer"/>
 </g>
 <g id="Слой_x0020_1_2">
  <metadata id="CorelCorpID_3Corel-Layer"/>
 </g>
 <g id="Слой_x0020_1_3">
  <metadata id="CorelCorpID_4Corel-Layer"/>
  <g id="_1997413799856">
   <path class="fil0" d="M19.34 17.7c0,0.62 0.49,0.81 0.89,1.05l2.98 1.8c0.17,0.11 0.46,0.3 0.63,0.34 0,1.09 0.12,3.14 -0.21,4.03 -0.39,1.06 -1.49,1.65 -2.64,1.65l-11.94 0c-0.62,0 -1.27,-0.2 -1.63,-0.47 -0.41,-0.29 -0.79,-0.67 -0.96,-1.18 -0.34,-0.92 -0.22,-2.92 -0.22,-4.03 0.18,-0.04 0.4,-0.2 0.57,-0.3l3.49 -2.13c0.62,-0.61 0.09,-1.52 -0.48,-1.52 -0.54,0 -0.44,0.01 -0.98,0.34l-3.27 1.95c-0.36,0.22 -1.09,0.56 -1.09,1.07l0 3.85c0,2.15 2.03,4.18 4.18,4.18l12.76 0c1.19,0 2.3,-0.68 2.91,-1.28 0.61,-0.61 1.28,-1.72 1.28,-2.9l0 -3.85c0,-0.52 -0.74,-0.84 -1.11,-1.06 -0.52,-0.31 -3.88,-2.41 -4.18,-2.41 -0.59,0 -0.98,0.38 -0.98,0.87l0 0z"/>
   <path class="fil0" d="M15.04 14.24c-1.34,0 -2.8,-0.62 -3.7,-1.53 -0.73,-0.72 -1.17,-1.53 -1.41,-2.54 -0.21,-0.82 -0.22,-1.49 -0.02,-2.33 0.54,-2.39 2.64,-4.15 5.13,-4.15 0.72,0 1.5,0.19 2.13,0.45 0.34,0.15 0.56,0.29 0.84,0.48l1.34 1.3c2.56,3.87 -0.37,8.32 -4.31,8.32l0 0zm-7.04 -5.61c0,1.45 0.1,2.08 0.66,3.36 0.98,2.21 3.58,4.01 6.06,4.01 1.44,0 2.07,-0.09 3.35,-0.66 2.21,-0.98 4.01,-3.57 4.01,-6.04 0,-1.45 -0.09,-2.08 -0.66,-3.36 -0.99,-2.23 -3.58,-4.01 -6.04,-4.01 -1.31,0 -2.24,0.11 -3.37,0.65 -0.7,0.35 -1.43,0.86 -1.96,1.39 -1.13,1.14 -2.05,2.94 -2.05,4.66l0 0z"/>
  </g>
 </g>
</svg>
