<?xml version="1.0" encoding="UTF-8"?>
<!DOCTYPE svg PUBLIC "-//W3C//DTD SVG 1.1//EN" "http://www.w3.org/Graphics/SVG/1.1/DTD/svg11.dtd">
<!-- Creator: CorelDRAW -->
<svg xmlns="http://www.w3.org/2000/svg" xml:space="preserve" width="32px" height="32px" version="1.1" style="shape-rendering:geometricPrecision; text-rendering:geometricPrecision; image-rendering:optimizeQuality; fill-rule:evenodd; clip-rule:evenodd"
viewBox="0 0 32 32"
 xmlns:xlink="http://www.w3.org/1999/xlink"
 xmlns:xodm="http://www.corel.com/coreldraw/odm/2003">
 <defs>
  <style type="text/css">
   <![CDATA[
    .fil0 {fill:#7A75B5}
   ]]>
  </style>
 </defs>
 <g id="Слой_x0020_1">
  <metadata id="CorelCorpID_0Corel-Layer"/>
  <g id="_2619382113856">
   <path class="fil0" d="M3.35 21.4c0,-7.98 -1.81,-18.11 7.76,-18.11 7.99,0 18.12,-1.81 18.12,7.76 0,7.99 1.8,18.12 -7.77,18.12 -7.99,0 -18.11,1.8 -18.11,-7.77zm-1.3 -11.64l0 12.94c0,3.95 3.87,7.76 7.77,7.76l12.94 0c3.9,0 7.76,-3.86 7.76,-7.76l0 -12.94c0,-3.9 -3.81,-7.77 -7.76,-7.77l-12.94 0c-3.96,0 -7.77,3.81 -7.77,7.77z"/>
   <path class="fil0" d="M10.46 16.23c0,-6.18 8.79,-7.95 11.05,-2.31 0.96,2.37 0.47,4.67 -1.19,6.34 -3.79,3.78 -9.86,0.72 -9.86,-4.03zm-1.29 -0.65c0,11.13 14.23,9.2 14.23,1.3 0,-11.13 -14.23,-9.2 -14.23,-1.3z"/>
   <path class="fil0" d="M22.76 8.46c0,1.73 2.58,1.73 2.58,0 0,-1.72 -2.58,-1.72 -2.58,0z"/>
  </g>
 </g>
</svg>
