<?xml version="1.0" ?><!-- Uploaded to: SVG Repo, www.svgrepo.com, Generator: SVG Repo Mixer Tools -->
<svg width="800px" height="800px" viewBox="0 0 64 64" data-name="Layer 1" id="Layer_1" xmlns="http://www.w3.org/2000/svg"><defs><style>.cls-1{fill:#0074ff;}</style></defs><title/><path class="cls-1" d="M35.5,60.5a6,6,0,0,1-5.73-4.22l-2.64-8.5A2,2,0,1,1,31,46.6l2.64,8.49a2,2,0,1,0,3.82-1.18L30.78,32.59a2,2,0,0,1,0-1.18l6.63-21.32a2,2,0,1,0-3.82-1.18l-7,22.5a2,2,0,0,0,0,1.18l1.25,4A2,2,0,0,1,24,37.79l-1.25-4a6,6,0,0,1,0-3.56l7-22.5a6,6,0,1,1,11.46,3.56L34.78,32l6.45,20.72A6,6,0,0,1,35.5,60.5Z"/></svg>