<?xml version="1.0" encoding="UTF-8"?>
<!DOCTYPE svg PUBLIC "-//W3C//DTD SVG 1.1//EN" "http://www.w3.org/Graphics/SVG/1.1/DTD/svg11.dtd">
<!-- Creator: CorelDRAW -->
<svg xmlns="http://www.w3.org/2000/svg" xml:space="preserve" width="120px" height="38px" version="1.1" style="shape-rendering:geometricPrecision; text-rendering:geometricPrecision; image-rendering:optimizeQuality; fill-rule:evenodd; clip-rule:evenodd"
viewBox="0 0 120 38"
 xmlns:xlink="http://www.w3.org/1999/xlink"
 xmlns:xodm="http://www.corel.com/coreldraw/odm/2003">
 <defs>
  <style type="text/css">
   <![CDATA[
    .fil1 {fill:black}
    .fil0 {fill:#7F73F0}
   ]]>
  </style>
 </defs>
 <g id="Слой_x0020_1">
  <metadata id="CorelCorpID_0Corel-Layer"/>
  <g id="_1821926961520">
   <path class="fil0" d="M44.09 15.59l-2.55 0 0 -5.22c1.06,0 2.66,-0.09 3.57,0.15 0.16,0.05 0.28,0.12 0.43,0.19 0.28,0.15 0.46,0.31 0.62,0.58 0.08,0.11 0.16,0.28 0.22,0.41 0.36,0.9 0.27,2.52 -0.47,3.26 -0.41,0.4 -1.01,0.63 -1.82,0.63zm-6.01 8.46l3.36 0c0.08,0 0.1,-0.02 0.1,-0.11l0 -5.76 2.45 0c0.03,0.15 0.41,0.87 0.53,1.1l2.42 4.77 3.86 0c-0.04,-0.19 -2.12,-4.04 -2.35,-4.5l-0.85 -1.63c-0.08,-0.14 -0.18,-0.25 -0.22,-0.44 0.11,-0.06 0.15,-0.09 0.28,-0.16 1.44,-0.76 2.38,-2.42 2.38,-4.18 0,-1.44 -0.2,-2.37 -1.02,-3.42 -0.37,-0.48 -0.97,-0.94 -1.5,-1.21 -0.91,-0.48 -2.2,-0.73 -3.31,-0.73l-6.13 0 0 16.27 0 0z"/>
   <path class="fil0" d="M65.51 12.16c0,0.58 0.14,1.31 0.32,1.73 0.2,0.49 0.46,0.88 0.81,1.23 1.52,1.52 3.74,1.82 5.72,2.48 0.93,0.31 2.16,0.73 2.16,1.96 0,0.79 -0.19,1.32 -0.88,1.76 -1.01,0.62 -3.07,0.6 -4.08,-0.15 -0.61,-0.46 -0.77,-1.12 -0.77,-2.05l-3.5 0c0,0.66 -0.02,1.16 0.19,1.79 0.19,0.61 0.35,0.89 0.7,1.37 0.24,0.31 0.78,0.77 1.1,0.97 1.87,1.17 4.78,1.43 6.93,0.82 0.64,-0.18 1.42,-0.48 1.93,-0.87 0.6,-0.45 0.96,-0.75 1.36,-1.45 0.67,-1.17 0.69,-2.74 0.26,-4.04 -0.2,-0.59 -0.58,-1.15 -1.05,-1.55 -1.85,-1.56 -3.36,-1.64 -5.4,-2.33 -0.62,-0.2 -1.69,-0.49 -2.03,-1.07 -0.47,-0.78 -0.2,-1.8 0.51,-2.26 0.88,-0.58 2.78,-0.58 3.7,0.13 0.63,0.47 0.77,1.16 0.77,2l3.46 0c0,-0.98 -0.1,-1.8 -0.55,-2.54 -1.16,-1.91 -3.18,-2.63 -5.64,-2.63 -1.7,0 -3.23,0.44 -4.19,1.17 -1.17,0.88 -1.83,1.98 -1.83,3.53l0 0z"/>
   <path class="fil0" d="M80.24 7.9l0 9.84c0,2.94 0.8,5 3.61,6.13 2.36,0.95 5.47,0.56 7.36,-1.04 0.52,-0.44 1.02,-1.09 1.28,-1.77 0.28,-0.69 0.52,-1.59 0.52,-2.55l0 -10.73 -3.36 0 0 10.4c0,1.25 -0.2,2.33 -1.04,2.96 -1.2,0.9 -3.43,0.74 -4.27,-0.38 -0.46,-0.62 -0.64,-1.49 -0.64,-2.55l0 -10.43 -3.35 0c-0.09,0 -0.11,0.02 -0.11,0.12l0 0z"/>
   <polygon class="fil0" points="52.67,24.05 63.75,24.05 63.75,21.42 56.09,21.42 56.09,16.97 62.62,16.97 62.62,14.39 56.09,14.39 56.09,10.41 63.65,10.41 63.65,7.78 52.67,7.78 "/>
   <path class="fil0" d="M105.22 7.9l0 2.4c0,0.09 0.03,0.11 0.12,0.11l4.73 0 0 13.64 3.36 0c0.08,0 0.11,-0.02 0.11,-0.11l0 -13.53 4.81 0 0 -2.63 -13.01 0c-0.09,0 -0.12,0.02 -0.12,0.12l0 0z"/>
   <polygon class="fil0" points="96.25,24.05 106.83,24.05 106.83,21.42 99.72,21.42 99.72,7.78 96.25,7.78 "/>
   <path class="fil0" d="M16.74 7.46l0 0.18c0,0.31 0.6,0.89 1.23,0.24 0.13,-0.13 0.24,-0.19 0.37,-0.33 0.37,-0.37 3.73,-3.76 4.01,-3.97 0.08,-0.08 0.11,-0.12 0.19,-0.17 0.2,0.05 0.31,0.22 0.45,0.35l5.68 5.69c0.37,0.37 0.72,0.39 -0.22,1.1l-2.6 2.58c-0.07,0.09 -0.07,0.11 -0.14,0.19l-0.52 0.47c-0.31,0.32 -1.15,1.04 -1.15,1.47 0,0.39 0.24,0.66 0.51,0.66 0.29,0 0.48,0.02 0.69,-0.25 0.41,-0.51 1.36,-1.35 1.89,-1.88 0.26,-0.25 0.49,-0.49 0.75,-0.75l2.59 -2.62c0.23,-0.28 0.35,-0.58 0.13,-0.92 -0.04,-0.08 -0.06,-0.07 -0.12,-0.14l-1.64 -1.64c-0.17,-0.17 -0.32,-0.32 -0.49,-0.49l-0.53 -0.5c-0.28,-0.35 -1.1,-1.13 -1.5,-1.53 -0.18,-0.18 -0.31,-0.35 -0.49,-0.52 -0.28,-0.28 -2.09,-2.13 -2.41,-2.41l-0.41 -0.36c-0.13,-0.11 -0.15,-0.18 -0.36,-0.18 -0.16,0 -0.42,0.09 -0.53,0.16l-5.2 5.19c-0.01,0 -0.02,0.02 -0.03,0.02 0,0.01 0,0.01 0,0.02 -0.06,0.09 -0.15,0.21 -0.15,0.34l0 0z"/>
   <path class="fil0" d="M2.12 22.12c0,0.62 0.33,0.75 0.9,1.32l6.03 6.04c0.25,0.25 0.84,0.92 1.13,0.92l0.26 0c0.17,0 1.51,-1.36 1.82,-1.67 0.14,-0.14 0.21,-0.25 0.35,-0.38l2.84 -2.85c0.18,-0.18 0.6,-0.52 0.6,-0.83 0,-0.45 -0.52,-1.05 -1.12,-0.54 -0.6,0.52 -1.55,1.65 -2.34,2.3l-0.47 0.47c-0.21,0.22 -0.4,0.41 -0.62,0.63 -0.28,0.27 -0.43,0.33 -0.77,0.76 -0.05,0.06 -0.1,0.1 -0.16,0.16 -0.11,0.12 -0.2,0.22 -0.32,0.31 -0.14,-0.22 -0.44,-0.43 -0.59,-0.62 -0.2,-0.26 -1.51,-1.55 -1.81,-1.84l-2.48 -2.41c-0.26,-0.21 -0.55,-0.55 -0.8,-0.8 -0.12,-0.12 -0.31,-0.28 -0.4,-0.4 -0.04,-0.06 -0.04,-0.07 -0.07,-0.11 -0.39,-0.48 -0.67,-0.04 0.85,-1.57 0.41,-0.4 0.79,-0.78 1.19,-1.18 0.4,-0.4 0.78,-0.78 1.18,-1.19 0.46,-0.45 1.07,-0.92 1.07,-1.48 0,-0.25 -0.3,-0.55 -0.55,-0.55 -0.3,0 -0.34,0 -0.62,0.22l-1.03 1.05c-0.23,0.24 -0.48,0.41 -0.73,0.65l-2.79 2.76c-0.18,0.18 -0.55,0.5 -0.55,0.83l0 0z"/>
   <path class="fil1" d="M24.29 17.19c0,0.45 0.2,0.55 0.47,0.82 0.1,0.1 0.2,0.19 0.29,0.29 0.26,0.31 2.81,2.89 3.15,3.15 0.13,0.11 0.73,0.67 0.73,0.82 0,0.12 -0.7,0.66 -0.98,1.02l-2.89 2.85c-0.09,0.1 -0.11,0.14 -0.2,0.23l-1.63 1.65c-0.16,0.14 -0.28,0.23 -0.42,0.38 -0.15,0.15 -0.28,0.28 -0.45,0.39l-1.8 -1.81c-0.22,-0.22 -0.38,-0.42 -0.6,-0.64l-1.82 -1.83c-0.41,-0.41 -0.43,-0.54 -0.89,-0.54 -0.3,0 -0.62,0.28 -0.62,0.56 0,0.33 0,0.34 0.26,0.61l0.35 0.38c0.35,0.38 1.7,1.7 2.14,2.13l2.13 2.14c0.42,0.42 0.47,0.61 0.99,0.61 0.24,0 0.44,-0.28 0.58,-0.42 0.18,-0.18 0.34,-0.31 0.52,-0.49 0.35,-0.35 0.68,-0.67 1.03,-1.02l3.54 -3.53c0.18,-0.19 0.3,-0.35 0.49,-0.53l1.53 -1.5c0.83,-0.83 0.06,-1.27 -0.51,-1.84l-3.52 -3.52c-0.13,-0.14 -0.25,-0.21 -0.38,-0.35 -0.27,-0.27 -0.69,-0.89 -1.28,-0.42 -0.08,0.07 -0.21,0.27 -0.21,0.41l0 0z"/>
   <path class="fil1" d="M7.91 15.84c0.35,0 0.66,-0.28 0.66,-0.62 0,-0.41 -0.79,-1.1 -1.08,-1.39l-0.93 -0.93c-0.19,-0.18 -0.42,-0.36 -0.66,-0.62l-0.29 -0.33c-0.22,-0.21 -0.4,-0.4 -0.62,-0.62 -0.29,-0.29 -1.04,-1 -1.24,-1.29 0.18,-0.11 1.34,-1.35 1.62,-1.63l3.27 -3.26c2.01,-2.02 1.47,-1.84 2.36,-0.93l0.7 0.65c0.47,0.47 0.91,0.91 1.37,1.37 0.45,0.46 0.93,0.9 1.37,1.37 0.19,0.21 0.42,0.56 0.75,0.6 0.39,0.05 0.75,-0.33 0.75,-0.61 0,-0.31 -0.38,-0.64 -0.54,-0.84 -0.1,-0.12 -0.23,-0.24 -0.34,-0.35 -0.15,-0.15 -0.21,-0.21 -0.34,-0.37 -0.28,-0.34 -2.97,-2.97 -3.5,-3.5 -0.12,-0.13 -0.23,-0.19 -0.36,-0.33 -0.64,-0.65 -1.18,0.03 -1.62,0.48 -1.15,1.15 -6.7,6.64 -6.93,6.96 -0.41,0.53 0,0.93 0.44,1.34 0.09,0.08 0.14,0.1 0.23,0.19l1.94 1.96c0.08,0.08 0.13,0.15 0.22,0.23 0.29,0.3 0.57,0.58 0.87,0.88 0.28,0.28 0.58,0.61 0.87,0.87l0.46 0.42c0.16,0.17 0.26,0.3 0.58,0.3l-0.01 0z"/>
  </g>
 </g>
</svg>
