<?xml version="1.0" encoding="UTF-8"?>
<!DOCTYPE svg PUBLIC "-//W3C//DTD SVG 1.1//EN" "http://www.w3.org/Graphics/SVG/1.1/DTD/svg11.dtd">
<!-- Creator: CorelDRAW -->
<svg xmlns="http://www.w3.org/2000/svg" xml:space="preserve" width="315px" height="63px" version="1.1" style="shape-rendering:geometricPrecision; text-rendering:geometricPrecision; image-rendering:optimizeQuality; fill-rule:evenodd; clip-rule:evenodd"
viewBox="0 0 315 63"
 xmlns:xlink="http://www.w3.org/1999/xlink"
 xmlns:xodm="http://www.corel.com/coreldraw/odm/2003">
 <defs>
  <style type="text/css">
   <![CDATA[
    .fil0 {fill:black}
    .fil12 {fill:#00ADEB}
    .fil23 {fill:#00B0E8}
    .fil14 {fill:#00B1E8}
    .fil17 {fill:#00B3E6}
    .fil31 {fill:#00B4E6}
    .fil16 {fill:#00B6E4}
    .fil26 {fill:#00B7E3}
    .fil29 {fill:#00B9E2}
    .fil32 {fill:#00BAE2}
    .fil22 {fill:#00BCE1}
    .fil21 {fill:#00C0DC}
    .fil39 {fill:#00C0DD}
    .fil30 {fill:#00C2DB}
    .fil15 {fill:#00C4DA}
    .fil25 {fill:#00C6D7}
    .fil19 {fill:#00C9D6}
    .fil13 {fill:#00CCD4}
    .fil11 {fill:#00CDD3}
    .fil4 {fill:#00D0D1}
    .fil27 {fill:#00D2CF}
    .fil3 {fill:#00D3CE}
    .fil2 {fill:#00D6CC}
    .fil10 {fill:#00D8CA}
    .fil28 {fill:#00D9C9}
    .fil18 {fill:#00DAC9}
    .fil6 {fill:#00DBC8}
    .fil9 {fill:#00DCC7}
    .fil20 {fill:#00DEC6}
    .fil5 {fill:#00DFC4}
    .fil8 {fill:#00E1C3}
    .fil38 {fill:#03ABEC}
    .fil45 {fill:#05AAED}
    .fil50 {fill:#0EAAEE}
    .fil47 {fill:#17A9EE}
    .fil40 {fill:#1AA8EE}
    .fil35 {fill:#21A7F1}
    .fil24 {fill:#29A5F1}
    .fil46 {fill:#2DA5F1}
    .fil42 {fill:#34A4F2}
    .fil49 {fill:#36A3F1}
    .fil43 {fill:#39A3F2}
    .fil44 {fill:#3CA3F3}
    .fil34 {fill:#44A1F4}
    .fil36 {fill:#4CA0F5}
    .fil33 {fill:#4D9FF5}
    .fil41 {fill:#529EF6}
    .fil37 {fill:#559DF6}
    .fil48 {fill:#579BF7}
    .fil7 {fill:#5A9BF6}
    .fil51 {fill:#5C9BF8}
    .fil1 {fill:#898DF3}
   ]]>
  </style>
 </defs>
 <g id="Слой_x0020_1">
  <metadata id="CorelCorpID_0Corel-Layer"/>
  <g id="_1676873465184">
   <path class="fil0" d="M29 49.22l1.5 0 0.69 -4.28 1.48 4.28 1.31 0c0.04,-0.41 0.95,-3 1.2,-3.77 0.12,-0.37 0.02,-0.31 0.29,-0.51 0,0.69 0.21,1.5 0.32,2.18 0.11,0.66 0.23,1.44 0.38,2.1l1.39 0c-0.09,-0.21 -1.19,-6.65 -1.19,-7.17 -1.65,0 -1.3,-0.45 -2.2,2.28 -0.18,0.53 -0.74,1.98 -0.79,2.5 -0.33,-0.25 -0.75,-1.9 -0.88,-2.3 -0.26,-0.78 -0.63,-1.7 -0.81,-2.48l-1.39 0c-0.31,1.31 -1.04,6.63 -1.3,7.17z"/>
   <path class="fil1" d="M3.32 35.28c0,0.47 0.24,0.7 0.7,0.7l23.19 0c0.96,0 0.96,-1.39 0,-1.39l-23.19 0c-0.46,0 -0.7,0.23 -0.7,0.69z"/>
   <path class="fil1" d="M62.55 35.28c0,0.47 0.23,0.7 0.69,0.7l23.2 0c0.95,0 0.95,-1.39 0,-1.39l-23.2 0c-0.46,0 -0.69,0.23 -0.69,0.69z"/>
   <path class="fil0" d="M20.84 45.94c0,-4.07 4.58,-3.11 4.58,-0.6l0 0.6c0,1.09 -1.1,2.19 -2.19,2.19 -1.22,0 -2.39,-1 -2.39,-2.19zm-1.49 -0.3c0,1.01 0.49,2.04 1.02,2.56 1.08,1.09 1.51,1.22 3.06,1.22 1.43,0 2.73,-1.19 3.15,-2.23 0.6,-1.5 0.31,-3.04 -0.68,-4.12 -2.47,-2.65 -6.55,-0.7 -6.55,2.57z"/>
   <path class="fil0" d="M55.68 45.94c0,-4.07 4.58,-3.11 4.58,-0.6l0 0.6c0,1.09 -1.1,2.19 -2.19,2.19 -1.22,0 -2.39,-1 -2.39,-2.19zm-1.49 -0.3c0,1.01 0.49,2.04 1.01,2.56 1.09,1.09 1.51,1.22 3.07,1.22 1.17,0 1.81,-0.56 2.41,-1.17 0.33,-0.32 0.55,-0.6 0.73,-1.06 1.15,-2.84 -1.09,-5.34 -3.14,-5.34 -1.34,0 -2.05,0.19 -3.07,1.22 -0.5,0.51 -1.01,1.59 -1.01,2.57z"/>
   <path class="fil0" d="M73.9 45.94c0,-4.07 4.57,-3.11 4.57,-0.6l0 0.6c0,1.09 -1.1,2.19 -2.18,2.19 -1.23,0 -2.39,-1 -2.39,-2.19zm-1.5 -0.3c0,1.85 1.59,3.78 3.49,3.78 1.5,0 1.95,-0.11 3.01,-1.17 0.66,-0.65 1.09,-1.7 1.06,-2.61 -0.05,-1.99 -1.66,-3.79 -3.48,-3.79 -1.34,0 -2.04,0.19 -3.06,1.22 -0.51,0.51 -1.02,1.59 -1.02,2.57z"/>
   <path class="fil0" d="M43.04 44.14c0.03,0.35 0.27,0.83 0.38,1.11 0.17,0.4 0.31,0.74 0.42,1.18l-1.8 0c0.09,-0.37 0.29,-0.74 0.44,-1.15 0.14,-0.41 0.27,-0.93 0.56,-1.14zm-3.58 5.08l1.49 0c0.22,-0.46 0.37,-1.03 0.6,-1.49l2.88 0c0.03,0.31 0.38,1.23 0.5,1.49l1.49 0 -2.04 -5.32c-0.16,-0.41 -0.61,-1.49 -0.64,-1.85l-1.5 0 -2.09 5.38c-0.22,0.55 -0.44,1.27 -0.69,1.79z"/>
   <path class="fil0" d="M4.42 45.44c0,2.2 1.46,3.98 3.48,3.98 1.29,0 2.68,-0.2 3.49,-1.4l-0.92 -0.97c-0.31,0.2 -0.49,0.48 -0.85,0.7 -1.55,0.94 -3.71,-0.05 -3.71,-1.81 0,-0.78 0.02,-1.51 0.68,-2.11 1.3,-1.18 3.1,-0.64 3.8,0.41 0.36,-0.24 0.54,-0.67 1,-0.79 -0.08,-0.92 -2.02,-1.6 -2.79,-1.6 -1.37,0 -2.08,0.14 -3.06,1.12 -0.61,0.61 -1.12,1.51 -1.12,2.47z"/>
   <path class="fil0" d="M63.64 49.22l1.5 0c0.08,-0.35 0.35,-0.99 0.48,-1.31 0.18,-0.43 0.35,-0.89 0.5,-1.29 0.17,-0.47 0.34,-0.88 0.49,-1.3l0.52 -1.28c0.15,0.68 1.68,4.27 1.89,5.18l1.49 0c-0.03,-0.34 -1.1,-3.02 -1.31,-3.57 -0.21,-0.57 -0.47,-1.19 -0.69,-1.79 -0.11,-0.31 -0.19,-0.53 -0.33,-0.87 -0.13,-0.32 -0.23,-0.67 -0.36,-0.94l-1.49 0c-0.03,0.34 -0.19,0.62 -0.3,0.9l-2.39 6.27z"/>
   <path class="fil2" d="M47.62 9.33c-0.38,0.04 -0.62,0.24 -0.94,0.43 -0.35,0.21 -0.68,0.31 -0.96,0.54 0.24,0.15 0.72,0.12 0.98,0.07 0.09,-0.01 0.04,-0.02 0.22,-0.03l0.31 0.01c0.95,-0.07 0.41,0.1 0.97,-0.04 0.44,-0.11 0.09,-0.05 0.61,0.01l0.9 -0.02c1.09,0.08 1.11,-0.17 1.53,-0.06 1.05,0.28 1.42,-0.28 2.48,0.21l0.8 0.31c0.24,0.1 0.68,-0.11 0.72,-0.12l0.17 -0.05c0.37,-0.04 0.13,0.03 0.4,0.08 0.31,0.06 0.44,-0.07 0.72,-0.13 0.4,-0.08 0.76,0.13 1.42,0.14l0.29 -0.02c0.52,-0.01 1.05,-0.18 0.73,0.25 0.12,-0.21 -0.39,-0.09 0.36,-0.26 0.03,-0.01 0.28,0 0.42,0.03 0.55,0.11 0.47,0.12 0.98,-0.02 0.02,0 0.1,-0.02 0.19,-0.02 1.08,-0.01 0.61,0.19 1.23,0.06 -0.05,-0.33 -0.45,-1.11 -0.6,-1.42l-2.33 -0.03c-0.25,-0.06 0.07,-0.06 -0.46,0.05 -0.01,0.01 -0.04,0.02 -0.06,0.02l-0.22 0.03c-0.01,0 -0.04,-0.01 -0.05,-0.01 -0.44,-0.04 0.23,-0.04 -0.29,-0.04l-0.42 0.02c-0.01,0 -0.04,-0.01 -0.06,-0.01l-0.7 0.02c-0.28,0.04 -0.33,-0.03 -0.58,0.09 -0.13,-0.24 0.17,-0.16 -0.08,-0.31 -0.01,0 -0.49,0.21 -0.5,0.22 -0.42,0.16 -0.62,0.05 -0.91,-0.02l-0.37 0.02c-0.02,0 -0.05,0.01 -0.07,0.02l-0.66 0.08 -0.18 -0.27c-0.37,0.38 -0.23,0.13 -0.75,0.12l-0.41 0.06c-0.01,0 -0.04,-0.01 -0.04,-0.01 -0.29,-0.05 0.22,-0.04 -0.2,-0.04l-4.59 0.04z"/>
   <path class="fil3" d="M45.72 10.3c-0.51,0.12 -0.88,0.4 -1.43,0.56 -0.45,0.13 -1.09,0.33 -1.45,0.5 0.35,0.07 0.13,0.05 0.41,0.01 0.81,-0.11 0.8,0.2 1.38,-0.11l0.27 0.2c0.35,-0.19 0.68,-0.02 0.94,-0.01 0.74,0.01 -0.09,-0.13 0.8,-0.06 0.23,0.02 0.44,-0.1 0.89,-0.03 0.31,0.05 0.52,0.06 0.88,-0.1 0.26,0.17 0.14,0 0.27,0.3 0.07,-0.15 0,-0.22 0.36,-0.22l1.64 -0.02c0.58,0.11 0.21,-0.07 0.36,0.21 0.11,-0.31 -0.05,-0.24 0.28,-0.19 0,0 0.03,0.01 0.04,0.01 0.01,0 0.04,0.02 0.05,0.02 0.12,0.02 0.06,0.02 0.21,0.01l1.71 0c0.01,0 0.03,0.01 0.03,0.01 0.08,0.01 0.47,-0.14 1.14,-0.07 0.27,0.03 -0.05,-0.01 0.21,0.04l0.41 0.01c0,0 0.03,0 0.03,0 0.02,-0.01 0.07,-0.01 0.08,-0.01l1.98 0.1c0.54,0.07 -0.52,-0.18 0.25,-0.1 0.6,0.05 1.59,0.12 2.18,0.01l2.09 0.05c0.22,-0.01 0.38,-0.07 0.62,0.03 -0.08,-0.26 -0.08,-0.45 -0.2,-0.75 -0.62,0.13 -0.15,-0.07 -1.23,-0.06 -0.09,0 -0.17,0.02 -0.19,0.02 -0.51,0.14 -0.43,0.13 -0.98,0.02 -0.14,-0.03 -0.39,-0.04 -0.42,-0.03 -0.75,0.17 -0.24,0.05 -0.36,0.26 0.32,-0.43 -0.21,-0.26 -0.73,-0.25l-0.29 0.02c-0.66,-0.01 -1.02,-0.22 -1.42,-0.14 -0.28,0.06 -0.41,0.19 -0.72,0.13 -0.27,-0.05 -0.03,-0.12 -0.4,-0.08l-0.17 0.05c-0.04,0.01 -0.48,0.22 -0.72,0.12l-0.8 -0.31c-1.06,-0.49 -1.43,0.07 -2.48,-0.21 -0.42,-0.11 -0.44,0.14 -1.53,0.06l-0.9 0.02c-0.52,-0.06 -0.17,-0.12 -0.61,-0.01 -0.56,0.14 -0.02,-0.03 -0.97,0.04l-0.31 -0.01c-0.18,0.01 -0.13,0.02 -0.22,0.03 -0.26,0.05 -0.74,0.08 -0.98,-0.07z"/>
   <path class="fil4" d="M42.84 11.36c-0.34,0.08 -0.49,0.16 -0.79,0.24 -0.32,0.08 -0.66,0.14 -1,0.19l0.37 0.27c0.02,0.01 0.19,0.03 0.31,0.02l2.55 -0.02c0.22,0.03 1.79,-0.14 3.08,-0.05l0.21 0.01c0.68,-0.08 0.33,0.05 0.84,-0.01 0.44,-0.05 0.06,-0.11 0.44,-0.07 0.37,0.05 0.18,-0.08 0.43,0.15 1.19,-0.02 2.64,-0.6 4.65,-0.14 0.6,0.14 0.79,0.33 1.23,0.44 0.15,-0.1 -0.03,-0.06 0.21,-0.07 0.59,-0.04 0.05,0.23 1.41,0.06l0.43 -0.11c0.16,0 0.06,0 0.18,0.04 0.31,0.11 -0.07,0.05 0.2,0.1 0.17,0.03 0.08,0 0.16,-0.02 0.02,0 0.05,-0.01 0.06,-0.02l0.37 -0.08c1.19,-0.24 0.53,-0.04 1.21,0.07 0.5,0.08 1.52,-0.31 2.44,-0.04l0.62 0.09c0,-0.51 -0.03,-0.56 -0.1,-0.96 -0.24,-0.1 -0.4,-0.04 -0.62,-0.03l-2.09 -0.05c-0.59,0.11 -1.58,0.04 -2.18,-0.01 -0.77,-0.08 0.29,0.17 -0.25,0.1l-1.98 -0.1c-0.01,0 -0.06,0 -0.08,0.01 0,0 -0.03,0 -0.03,0l-0.41 -0.01c-0.26,-0.05 0.06,-0.01 -0.21,-0.04 -0.67,-0.07 -1.06,0.08 -1.14,0.07 0,0 -0.02,-0.01 -0.03,-0.01l-1.71 0c-0.15,0.01 -0.09,0.01 -0.21,-0.01 -0.01,0 -0.04,-0.02 -0.05,-0.02 -0.01,0 -0.04,-0.01 -0.04,-0.01 -0.33,-0.05 -0.17,-0.12 -0.28,0.19 -0.15,-0.28 0.22,-0.1 -0.36,-0.21l-1.64 0.02c-0.36,0 -0.29,0.07 -0.36,0.22 -0.13,-0.3 -0.01,-0.13 -0.27,-0.3 -0.36,0.16 -0.57,0.15 -0.88,0.1 -0.45,-0.07 -0.66,0.05 -0.89,0.03 -0.89,-0.07 -0.06,0.07 -0.8,0.06 -0.26,-0.01 -0.59,-0.18 -0.94,0.01l-0.27 -0.2c-0.58,0.31 -0.57,0 -1.38,0.11 -0.28,0.04 -0.06,0.06 -0.41,-0.01z"/>
   <path class="fil5" d="M31.19 5.62c-0.27,0.19 -0.4,0.34 -0.59,0.6 -0.25,0.32 -0.34,0.31 -0.47,0.7 0.13,0.09 0.12,0.07 0.2,0.25 0.05,-0.09 0.09,-0.19 0.13,-0.29l0.14 0.3c0.27,-0.08 0.19,-0.02 0.26,-0.3 0.54,0.12 1.21,0.26 1.73,0.24 0.35,-0.01 0.26,-0.18 0.46,0.14 0.18,-0.22 0.19,-0.1 0.1,-0.38 0.1,0.04 0.18,0.21 0.35,0.19 0.41,-0.04 0.26,-0.11 0.88,-0.01 0.02,0.01 0.09,0.02 0.11,0.02l0.29 0.01c0.58,-0.02 -0.38,0.05 0.14,0 1.23,-0.11 0.74,0.09 1.36,0.04l1.22 0c0.48,0.04 0.23,-0.5 0.43,0.13l0.26 -0.38 0.27 0.38c0.27,-0.47 0.04,-0.24 0.49,-0.19l0.3 0.01c0.07,0.01 0.13,0.02 0.16,0.03 0.01,0 0.04,0 0.05,0.01 0.01,0 0.04,0.01 0.05,0.01l0.44 -0.04c0.65,-0.11 0.03,-0.08 0.6,0.09 0.1,-0.22 -0.23,-0.24 0.19,-0.19l0.47 0.11c0.01,0 0.03,0 0.04,0 0.36,0 0.44,0.2 0.54,-0.18 -0.11,-0.34 -0.43,-0.47 -0.72,-0.73 -0.32,-0.29 -0.58,-0.47 -0.96,-0.67 -0.22,0.25 -0.71,0.42 -1.07,0.23 -0.02,-0.01 -0.04,-0.03 -0.06,-0.04l-0.12 -0.14c-0.43,0.4 -0.14,0.21 -0.2,0.36 -0.23,0 -0.08,-0.07 -0.2,0.05 -0.17,-0.21 -0.09,-0.31 -0.1,-0.34 -0.07,0.01 -0.45,0.06 -0.45,0.06l-0.25 0.22c-0.15,-0.31 -0.11,-0.01 -0.02,-0.38l-0.39 0.1c-0.35,0.11 -0.26,0.12 -0.48,0.3 -0.25,-0.11 -0.2,-0.4 -1.02,0 -0.03,-0.6 -0.11,0.04 -0.68,-0.2 -0.26,-0.11 0.19,0.05 -0.18,-0.09 -0.17,-0.06 0.08,-0.04 -0.14,-0.04 -0.27,0.01 -0.04,-0.05 -0.14,0.11l-0.94 0.04c-0.18,0.01 -0.17,-0.02 -0.43,-0.03l-0.31 0.02c-0.27,0 -0.41,-0.13 -0.69,-0.11 -0.01,0 -0.04,0.01 -0.05,0.01 -0.55,0.07 -0.39,0.14 -0.82,0.19l-0.18 -0.22z"/>
   <path class="fil6" d="M49.03 8.51c0.01,0.01 0.04,-0.01 0.05,0.01 0.04,0.14 0.03,0.01 0.1,0.02 0.01,0 0.04,0.01 0.05,0.01 0.01,0 0.04,0.01 0.05,0.01l0.25 0.03c0.79,0.04 0.38,-0.15 0.88,0.05l0.24 -0.01c0.45,-0.12 0.96,-0.2 1.32,0.19 0.04,-0.42 0.77,-0.28 1.02,-0.21 0.08,0.02 0.08,-0.11 0.33,0.13 0.05,-0.13 -0.05,0.14 0.02,-0.1l0.03 -0.09c0,-0.01 0.01,-0.03 0.02,-0.05 0.33,0.09 0.08,0.22 0.72,0.15 0.56,-0.05 0.5,-0.24 1.11,-0.09 0.79,0.2 0.09,-0.04 0.91,-0.02 0.77,0.03 0.73,0.1 1.08,-0.08 0.65,-0.32 0.26,-0.08 0.88,-0.1 1.27,-0.03 0.63,0.02 1.01,0.08 0.62,0.09 0.02,-0.34 0.73,-0.13 0.01,0 0.04,0.01 0.05,0.01 0.01,0.01 0.03,0.01 0.04,0.01 0.01,0 0.04,0 0.05,0l0.79 0c-0.33,-0.54 -1.13,-1.04 -1.65,-1.41l-0.08 0.26c-0.04,-0.01 -0.14,-0.07 -0.16,-0.08 -0.56,-0.18 0.15,-0.12 -0.2,-0.01l-0.2 0.11c-0.01,0 -0.04,0.01 -0.06,0.01 -0.5,0.08 -0.17,-0.02 -0.31,-0.06l-1.09 0c-0.39,-0.06 0.04,-0.22 -0.18,0.02l-0.05 0.1c-0.42,-0.03 -0.45,-0.15 -0.64,-0.17 -0.38,-0.04 -0.08,0.07 -0.44,0.11 -0.07,0.01 -0.38,-0.01 -0.62,-0.06 -1.05,-0.21 0,-0.05 -1.01,-0.01 -1.01,0.05 -1.43,0.29 -1.64,-0.22 -0.98,0.32 -2.55,1.09 -3.4,1.59z"/>
   <path class="fil7" d="M55.58 27.08l-3.98 8.3c1.49,-0.99 5.07,-5.85 5.98,-7.46 0.23,-0.42 0.25,-0.34 0.19,-0.6l0.07 -0.33c-0.19,-0.12 -0.23,0.1 -0.07,-0.17 -0.48,0.1 -0.3,0.03 -0.57,0.33 0.01,-0.14 -0.04,-0.15 -0.12,-0.33l-0.31 0c-0.12,0.25 0.12,0.04 -0.19,0.23 -0.02,-0.03 0.09,0.16 -0.03,-0.05l-0.07 -0.11c-0.93,0.07 -0.44,-0.11 -0.9,0.19z"/>
   <polygon class="fil0" points="13.38,43.35 14.67,43.35 14.67,49.22 16.06,49.22 16.06,43.35 17.36,43.35 17.36,42.05 13.38,42.05 "/>
   <polygon class="fil0" points="48.21,43.35 49.51,43.35 49.51,49.22 50.9,49.22 50.9,43.35 52.2,43.35 52.2,42.05 48.21,42.05 "/>
   <path class="fil7" d="M32.39 27.12c-0.05,0.2 -0.11,0.09 0.21,0.58l3.46 4.71c0.57,0.72 2.04,2.27 2.8,2.78l-4.08 -7.97 -0.29 -0.23c-0.44,-0.3 -0.27,-0.05 -0.29,-0.04 -0.03,0 -0.07,0.03 -0.16,0.02 -0.48,-0.06 0.2,-0.09 -0.27,-0.1l-0.27 0.07c-0.01,0 -0.04,0.01 -0.05,0.01 -0.21,0.02 -0.05,-0.01 -0.19,-0.02 -0.01,0 -0.04,-0.01 -0.05,-0.01 0,0 -0.03,0 -0.04,0 -0.01,0 -0.04,0.01 -0.05,0.01l-0.73 0.19z"/>
   <polygon class="fil0" points="82.65,49.22 84.05,49.22 84.05,43.35 86.24,43.35 86.24,42.05 82.65,42.05 "/>
   <path class="fil8" d="M31.19 5.62l0.18 0.22c0.43,-0.05 0.27,-0.12 0.82,-0.19 0.01,0 0.04,-0.01 0.05,-0.01 0.28,-0.02 0.42,0.11 0.69,0.11l0.31 -0.02c0.26,0.01 0.25,0.04 0.43,0.03l0.94 -0.04c0.1,-0.16 -0.13,-0.1 0.14,-0.11 0.22,0 -0.03,-0.02 0.14,0.04 0.37,0.14 -0.08,-0.02 0.18,0.09 0.57,0.24 0.65,-0.4 0.68,0.2 0.82,-0.4 0.77,-0.11 1.02,0 0.22,-0.18 0.13,-0.19 0.48,-0.3l0.39 -0.1c-0.09,0.37 -0.13,0.07 0.02,0.38l0.25 -0.22c0,0 0.38,-0.05 0.45,-0.06 0.01,0.03 -0.07,0.13 0.1,0.34 0.12,-0.12 -0.03,-0.05 0.2,-0.05 0.06,-0.15 -0.23,0.04 0.2,-0.36l0.12 0.14c0.02,0.01 0.04,0.03 0.06,0.04 0.36,0.19 0.85,0.02 1.07,-0.23 -1.68,-1.51 -5.5,-2.11 -8.05,-0.63 -0.23,0.13 -0.74,0.55 -0.87,0.73z"/>
   <path class="fil9" d="M29.6 7.74c0.77,0.45 0.42,0.01 1.23,0.06l0.45 0.12c0.02,0.01 0.18,0.02 0.2,0.02 0.45,0 -0.4,0.03 0.16,-0.02 0.67,-0.06 1.74,0.03 2.34,-0.11 0.52,-0.12 0.52,0.11 1,0.1 0.64,-0.01 0.23,-0.29 0.95,-0.08 0.21,0.06 0.12,0.04 0.34,0.05 0.24,0.01 0.03,-0.02 0.18,0.01l0.2 0.08c0.01,0.01 0.05,0.03 0.07,0.04 0.89,-0.27 1.95,0.02 2.84,-0.01 0.14,-0.15 0.05,0.1 0.16,-0.26l0.38 0.15c0.31,0.12 1.57,0.12 1.59,0.12 0.01,0 0.03,-0.01 0.04,-0.01 0.02,-0.01 0.15,-0.03 0.18,-0.03 0.4,-0.06 0.53,-0.03 0.73,-0.13 -0.23,-0.41 -0.42,-0.71 -0.85,-0.92 -0.1,0.38 -0.18,0.18 -0.54,0.18 -0.01,0 -0.03,0 -0.04,0l-0.47 -0.11c-0.42,-0.05 -0.09,-0.03 -0.19,0.19 -0.57,-0.17 0.05,-0.2 -0.6,-0.09l-0.44 0.04c-0.01,0 -0.04,-0.01 -0.05,-0.01 -0.01,-0.01 -0.04,-0.01 -0.05,-0.01 -0.03,-0.01 -0.09,-0.02 -0.16,-0.03l-0.3 -0.01c-0.45,-0.05 -0.22,-0.28 -0.49,0.19l-0.27 -0.38 -0.26 0.38c-0.2,-0.63 0.05,-0.09 -0.43,-0.13l-1.22 0c-0.62,0.05 -0.13,-0.15 -1.36,-0.04 -0.52,0.05 0.44,-0.02 -0.14,0l-0.29 -0.01c-0.02,0 -0.09,-0.01 -0.11,-0.02 -0.62,-0.1 -0.47,-0.03 -0.88,0.01 -0.17,0.02 -0.25,-0.15 -0.35,-0.19 0.09,0.28 0.08,0.16 -0.1,0.38 -0.2,-0.32 -0.11,-0.15 -0.46,-0.14 -0.52,0.02 -1.19,-0.12 -1.73,-0.24 -0.07,0.28 0.01,0.22 -0.26,0.3l-0.14 -0.3c-0.04,0.1 -0.08,0.2 -0.13,0.29 -0.08,-0.18 -0.07,-0.16 -0.2,-0.25 -0.11,0.1 -0.06,0.03 -0.16,0.16 -0.05,0.06 -0.09,0.11 -0.13,0.17 -0.12,0.19 -0.16,0.31 -0.24,0.49z"/>
   <path class="fil10" d="M49.03 8.51l-1.25 0.66c-0.12,0.1 -0.08,0.07 -0.16,0.16l4.59 -0.04c0.42,0 -0.09,-0.01 0.2,0.04 0,0 0.03,0.01 0.04,0.01l0.41 -0.06c0.52,0.01 0.38,0.26 0.75,-0.12l0.18 0.27 0.66 -0.08c0.02,-0.01 0.05,-0.02 0.07,-0.02l0.37 -0.02c0.29,0.07 0.49,0.18 0.91,0.02 0.01,-0.01 0.49,-0.22 0.5,-0.22 0.25,0.15 -0.05,0.07 0.08,0.31 0.25,-0.12 0.3,-0.05 0.58,-0.09l0.7 -0.02c0.02,0 0.05,0.01 0.06,0.01l0.42 -0.02c0.52,0 -0.15,0 0.29,0.04 0.01,0 0.04,0.01 0.05,0.01l0.22 -0.03c0.02,0 0.05,-0.01 0.06,-0.02 0.53,-0.11 0.21,-0.11 0.46,-0.05l2.33 0.03c-0.23,-0.29 -0.5,-0.78 -0.79,-0.95l-0.79 0c-0.01,0 -0.04,0 -0.05,0 -0.01,0 -0.03,0 -0.04,-0.01 -0.01,0 -0.04,-0.01 -0.05,-0.01 -0.71,-0.21 -0.11,0.22 -0.73,0.13 -0.38,-0.06 0.26,-0.11 -1.01,-0.08 -0.62,0.02 -0.23,-0.22 -0.88,0.1 -0.35,0.18 -0.31,0.11 -1.08,0.08 -0.82,-0.02 -0.12,0.22 -0.91,0.02 -0.61,-0.15 -0.55,0.04 -1.11,0.09 -0.64,0.07 -0.39,-0.06 -0.72,-0.15 -0.01,0.02 -0.02,0.04 -0.02,0.05l-0.03 0.09c-0.07,0.24 0.03,-0.03 -0.02,0.1 -0.25,-0.24 -0.25,-0.11 -0.33,-0.13 -0.25,-0.07 -0.98,-0.21 -1.02,0.21 -0.36,-0.39 -0.87,-0.31 -1.32,-0.19l-0.24 0.01c-0.5,-0.2 -0.09,-0.01 -0.88,-0.05l-0.25 -0.03c-0.01,0 -0.04,-0.01 -0.05,-0.01 -0.01,0 -0.04,-0.01 -0.05,-0.01 -0.07,-0.01 -0.06,0.12 -0.1,-0.02 -0.01,-0.02 -0.04,0 -0.05,-0.01z"/>
   <path class="fil7" d="M48.51 27.42c-0.2,0.11 -0.34,0.58 -1.07,1.22 -0.46,0.41 -1.06,0.6 -1.61,0.87 -1.22,0.59 -2.28,0.9 -4.09,0.9l0 0.2c1.49,0 3.76,0.37 5.68,-0.5 1.23,-0.56 2.53,-1.13 3.36,-2.22 0.16,-0.2 0.3,-0.23 0.22,-0.57l0 -0.26c-0.3,0.06 -0.16,0.04 -0.38,0.04 -0.59,-0.01 -0.04,0.02 -0.54,0.18l-0.07 -0.06c-0.15,0.16 0.01,0.07 -0.1,-0.14l-0.7 0.14c0.01,0.01 0.02,0 0.02,0l-0.2 -0.11c-0.02,0 -0.06,0 -0.08,0 -0.31,0.04 -0.28,0.21 -0.44,0.31z"/>
   <path class="fil11" d="M49.28 12.09c-0.25,-0.23 -0.06,-0.1 -0.43,-0.15 -0.38,-0.04 0,0.02 -0.44,0.07 -0.51,0.06 -0.16,-0.07 -0.84,0.01l-0.21 -0.01c-1.29,-0.09 -2.86,0.08 -3.08,0.05l-2.55 0.02c-0.12,0.01 -0.29,-0.01 -0.31,-0.02l-0.37 -0.27c-0.94,0.04 -2.63,0.45 -3.19,0.5l2.6 0.89c1.09,0.23 2.13,0.04 3.18,0.01 1.29,-0.04 4.86,-0.64 5.64,-1.1z"/>
   <path class="fil12" d="M38.46 20.67l-0.5 1.26c0.32,-0.4 -0.04,-0.16 0.4,-0.22l1.21 0c0.58,-0.08 0.8,0.09 1.22,-0.02 0.03,0 0.11,-0.25 0.32,0.06 0.39,-0.09 0.42,-0.26 0.77,-0.46 0.25,-0.14 0.64,-0.26 0.88,-0.32 1.18,-0.28 1.21,0.03 2.17,0.18 0.19,-0.04 0.28,0.08 0.52,0.14l0.47 0c0.77,-0.17 0.67,0.04 1.11,-0.17l0.39 -0.07c0,0.37 -0.1,0.51 0.2,0.7 0,-0.43 0.01,-1.21 -0.2,-1.4 -0.7,-0.18 -1.76,0.14 -2.29,0.01 -0.01,0 -0.04,-0.01 -0.06,-0.02 -0.01,0 -0.04,-0.01 -0.06,-0.01 -0.48,-0.1 -0.77,0.11 -1.17,0.09 -0.16,0 -0.36,-0.08 -0.57,-0.1 -0.77,-0.06 -0.6,0.08 -1.05,0.07l-2.16 -0.02c-0.01,0 -0.03,0 -0.04,0l-0.19 0c-0.11,0.01 -0.1,0.01 -0.24,0.02 -0.72,0.05 0.1,0.03 -1.13,0.28z"/>
   <path class="fil13" d="M55.16 12.39c0.2,0.22 0.4,0.33 0.65,0.57 0.24,0.25 0.4,0.45 0.68,0.63 0.01,-0.01 0.03,-0.02 0.04,0l0.57 -0.06c1.16,-0.22 0.26,0.12 1.42,-0.04 0.1,-0.01 0.1,0 0.15,0l1.04 0.09c0.01,0 0.04,0.01 0.05,0.01l0.61 -0.02c0.09,0 0.16,0 0.25,0l0.15 -0.01c0.4,-0.01 1.25,-0.15 1.68,0.03l0 -1.18 -0.62 -0.09c-0.92,-0.27 -1.94,0.12 -2.44,0.04 -0.68,-0.11 -0.02,-0.31 -1.21,-0.07l-0.37 0.08c-0.01,0.01 -0.04,0.02 -0.06,0.02 -0.08,0.02 0.01,0.05 -0.16,0.02 -0.27,-0.05 0.11,0.01 -0.2,-0.1 -0.12,-0.04 -0.02,-0.04 -0.18,-0.04l-0.43 0.11c-1.36,0.17 -0.82,-0.1 -1.41,-0.06 -0.24,0.01 -0.06,-0.03 -0.21,0.07z"/>
   <path class="fil7" d="M37.76 27.72c-0.2,0.51 0.02,1.45 0.17,2.03l1.14 3.53c0.15,0.37 0.6,1.3 0.88,1.51l-0.5 -3.98c0,-0.26 0.02,-0.55 0,-0.8 -0.03,-0.4 -0.08,-0.22 -0.09,-0.61l-0.12 -0.58c-0.04,-0.54 0.05,-1.29 -0.08,-1.6l-0.2 -0.02c-0.53,0.03 -0.02,0.22 -0.52,0.08 -0.19,-0.06 -0.13,-0.11 -0.32,-0.14 -0.13,-0.03 0.02,0 -0.16,-0.01l-0.2 0.59z"/>
   <polygon class="fil1" points="39.85,59.97 44.73,59.97 44.73,55.79 44.23,55.79 44.23,59.57 42.44,59.57 42.44,55.79 42.04,55.79 42.04,59.57 40.35,59.57 40.35,55.79 39.85,55.79 "/>
   <path class="fil14" d="M38.46 20.67c1.23,-0.25 0.41,-0.23 1.13,-0.28 0.14,-0.01 0.13,-0.01 0.24,-0.02l0.19 0c0.01,0 0.03,0 0.04,0l2.16 0.02c0.45,0.01 0.28,-0.13 1.05,-0.07 0.21,0.02 0.41,0.1 0.57,0.1 0.4,0.02 0.69,-0.19 1.17,-0.09 0.02,0 0.05,0.01 0.06,0.01 0.02,0.01 0.05,0.02 0.06,0.02 0.53,0.13 1.59,-0.19 2.29,-0.01 -0.05,-0.31 -0.02,-0.27 -0.16,-0.55 -0.25,-0.49 -0.1,-0.2 -0.24,-0.24 -0.65,0.03 -0.09,-0.12 -1.05,0.02 -0.37,0.06 -0.58,-0.14 -1.03,-0.08l-0.78 0.05c-0.95,0.01 -0.74,-0.14 -1.87,0.04 -0.53,0.08 -0.62,-0.05 -1.19,-0.05 -0.01,0 -0.04,0 -0.06,0l-0.13 0.02c-0.21,-0.01 0.11,0.01 -0.15,-0.02l-1.6 -0.08c-0.11,0.03 -0.08,-0.02 -0.22,0.17 -0.08,0.11 -0.13,0.21 -0.18,0.32 -0.13,0.25 -0.23,0.41 -0.3,0.72z"/>
   <path class="fil2" d="M28.91 9.21l-0.41 1.29c0.29,0.37 0.12,0.09 0.77,0.14l0.11 0.02c0.23,0.03 -0.12,0.01 0.09,0.02 0.01,0 0.04,0 0.04,0 0.01,0 0.04,-0.01 0.05,-0.01l0.11 -0.03c0.61,-0.11 0.47,0.04 0.73,0.06l0.2 -0.01c0.01,-0.01 0.04,-0.01 0.05,-0.01l0.14 0c0.01,0 0.04,0 0.05,0l0.41 0.01c0.01,0 0.04,0.01 0.05,0.02 0.74,0.13 0.37,0.06 0.77,0.04 0.03,0 0.11,0 0.15,0 0.13,0 0.31,0.01 0.47,0.01 0.07,-0.06 0.03,-0.01 0.13,-0.13l1.06 -1.25c-0.68,-0.07 -0.45,0.27 -1.15,-0.02 -0.81,-0.34 -0.52,0.04 -1.11,0 -0.35,-0.02 -0.25,-0.09 -0.56,-0.05l-0.57 0.01c-0.02,-0.01 -0.04,0 -0.05,0 -0.03,0 -0.08,0.01 -0.1,0.01 -0.15,-0.01 0.11,0.15 -0.24,-0.06 -0.13,-0.08 -0.36,-0.17 -0.11,-0.26 -0.11,0.18 -0.22,0.24 -0.59,0.32 -0.43,0.09 -0.48,-0.11 -0.49,-0.12z"/>
   <path class="fil1" d="M20.14 57.58c0,-0.85 0.78,-0.89 1.5,-0.89l0 1.69c-0.65,0 -1.5,0.08 -1.5,-0.8zm2.39 0.8l-0.39 0 0 -1.69 0.3 0c1.58,0 1.52,1.69 0.09,1.69zm-0.89 -2.09c-0.96,0 -1.99,-0.04 -1.99,1.39 0,1.24 1.36,1.1 1.99,1.1l0 1.19 0.5 0 0 -1.19 0.69 0c1.69,0 1.69,-2.49 -0.1,-2.49l-0.59 0 0 -0.5 -0.5 0 0 0.5z"/>
   <path class="fil15" d="M56.97 14.48c-0.06,0.28 -0.04,0.06 0,0.31l0.25 1.04c0,0.02 0.02,0.06 0.02,0.07 0.01,0.02 0.02,0.05 0.03,0.07l0.02 -0.48c0.64,-0.04 0.51,-0.13 1.31,-0.04l0.39 0.04c0.36,0.13 -0.1,0.18 0.47,0.01 0.33,-0.1 0.28,-0.02 0.68,-0.03l0.23 -0.02c1.63,-0.17 0.92,0.18 1.77,-0.06 0.09,0.35 0.1,0.16 0.13,0.58 0.15,-0.3 0.18,-0.69 0.18,-1.14 -0.02,-0.03 -0.04,-0.06 -0.05,-0.08 -0.01,-0.01 -0.04,-0.05 -0.05,-0.07l-0.69 -0.3c-1.11,0.08 0.32,0.1 -1.08,-0.05l-0.15 -0.02c-0.58,-0.07 -0.32,0.05 -0.68,0.08 -0.51,0.05 -2.43,-0.21 -2.78,0.09z"/>
   <path class="fil1" d="M63.44 57.98c0,-2.68 3.39,-2.11 3.39,-0.4l0 0.6c0,1.88 -3.39,2.05 -3.39,-0.2zm-0.49 -0.2c0,2.41 2.57,2.82 3.71,1.72 1.22,-1.18 0.93,-3.81 -1.72,-3.81 -1.06,0 -1.99,1.05 -1.99,2.09z"/>
   <path class="fil1" d="M24.92 59.97c0.39,-0.1 0.78,-0.71 1.04,-1.05l1.75 -2.04 0 3.09 0.5 0 0 -4.18c-0.42,0.11 -1.1,1.1 -1.41,1.48l-1.38 1.6 0 -3.08 -0.5 0 0 4.18z"/>
   <path class="fil1" d="M69.02 59.57l-0.3 0 0 -1.59c0.58,0 1.49,0.07 1.49,0.6l0 0.39c0,0.49 -0.68,0.6 -1.19,0.6zm-0.3 -1.99l0 -1.39 0.3 0c0.4,0 0.89,0.1 0.89,0.5l0 0.29c0,0.49 -0.68,0.6 -1.19,0.6zm-0.5 2.39c1.32,0 2.49,0.24 2.49,-1.29 0,-0.5 -0.33,-0.86 -0.8,-0.9 0.28,-0.41 0.5,-0.34 0.5,-0.99 0,-1.21 -1.36,-1 -2.19,-1l0 4.18z"/>
   <path class="fil16" d="M39.75 18.83c0.4,-0.05 0.63,-0.08 0.9,-0.05 0.01,0 0.04,0.01 0.05,0.01 0.58,0.11 1.59,0 1.77,-0.01 0.63,-0.04 1.67,-0.04 2.13,0.08 0.43,0.1 0.9,0.03 1.27,0.15 0.43,0.15 0.01,0.07 0.49,0.02 0.21,-0.03 0.23,0.06 0.46,0.16 -0.09,-0.38 -0.26,-0.44 -0.52,-0.7 -0.07,-0.08 -0.24,-0.26 -0.3,-0.31 -0.43,-0.32 -0.13,-0.13 -0.37,-0.12 -0.9,-0.25 -0.12,0.16 -0.85,-0.04l-0.34 -0.04c-0.02,0 -0.04,0.01 -0.06,0.01l-0.14 0.01c-0.02,0 -0.05,0.01 -0.07,0.01 -0.94,0.1 -0.67,-0.07 -0.93,-0.05 -0.37,0.03 -0.08,0.09 -0.28,0.13 -0.31,0.05 0.01,0.07 -0.12,-0.11 -0.61,-0.02 -1.42,-0.05 -1.89,-0.02 -0.21,-0.05 -0.09,-0.17 -0.66,0.24 -0.56,0.41 -0.46,0.27 -0.54,0.63z"/>
   <path class="fil17" d="M39.75 18.83c-0.17,0.04 -0.06,-0.08 -0.32,0.19 -0.26,0.27 -0.15,0.13 -0.27,0.44l1.6 0.08c0.26,0.03 -0.06,0.01 0.15,0.02l0.13 -0.02c0.02,0 0.05,0 0.06,0 0.57,0 0.66,0.13 1.19,0.05 1.13,-0.18 0.92,-0.03 1.87,-0.04l0.78 -0.05c0.45,-0.06 0.66,0.14 1.03,0.08 0.96,-0.14 0.4,0.01 1.05,-0.02 -0.01,-0.04 -0.02,-0.13 -0.03,-0.11 -0.01,0.02 -0.02,-0.08 -0.04,-0.1 -0.1,-0.18 -0.03,-0.08 -0.13,-0.16 -0.23,-0.1 -0.25,-0.19 -0.46,-0.16 -0.48,0.05 -0.06,0.13 -0.49,-0.02 -0.37,-0.12 -0.84,-0.05 -1.27,-0.15 -0.46,-0.12 -1.5,-0.12 -2.13,-0.08 -0.18,0.01 -1.19,0.12 -1.77,0.01 -0.01,0 -0.04,-0.01 -0.05,-0.01 -0.27,-0.03 -0.5,0 -0.9,0.05z"/>
   <path class="fil18" d="M29.18 8.51c0.24,0.47 0.32,0.07 0.86,0.15 0.78,0.12 1.01,-0.11 1.62,-0.01 0.49,0.08 -0.11,-0.11 0.88,0.03 0.33,0.05 0.41,0 0.47,-0.02 0.01,0 0.04,-0.01 0.06,-0.01 1.04,-0.21 0.19,0.2 1.23,-0.08l0.28 -0.01c0.39,-0.08 0.05,0 0.2,-0.1 0.22,-0.15 -0.38,-0.1 0.79,-0.07 0.34,-0.21 0.71,-0.35 1.15,-0.38 -0.02,-0.01 -0.06,-0.03 -0.07,-0.04l-0.2 -0.08c-0.15,-0.03 0.06,0 -0.18,-0.01 -0.22,-0.01 -0.13,0.01 -0.34,-0.05 -0.72,-0.21 -0.31,0.07 -0.95,0.08 -0.48,0.01 -0.48,-0.22 -1,-0.1 -0.6,0.14 -1.67,0.05 -2.34,0.11 -0.56,0.05 0.29,0.02 -0.16,0.02 -0.02,0 -0.18,-0.01 -0.2,-0.02l-0.45 -0.12c-0.81,-0.05 -0.46,0.39 -1.23,-0.06 -0.07,0.07 -0.03,0.01 -0.13,0.15 -0.06,0.09 -0.03,0.04 -0.11,0.18 -0.09,0.18 -0.11,0.24 -0.18,0.44z"/>
   <path class="fil19" d="M56.49 13.59c0.04,0.23 0.03,0.2 0.14,0.43 0.06,0.14 0.04,0.1 0.11,0.2 0.18,0.27 -0.04,0.06 0.23,0.26 0.35,-0.3 2.27,-0.04 2.78,-0.09 0.36,-0.03 0.1,-0.15 0.68,-0.08l0.15 0.02c1.4,0.15 -0.03,0.13 1.08,0.05l0.69 0.3c0.01,0.02 0.04,0.06 0.05,0.07 0.01,0.02 0.03,0.05 0.05,0.08l0 -1.24c-0.43,-0.18 -1.28,-0.04 -1.68,-0.03l-0.15 0.01c-0.09,0 -0.16,0 -0.25,0l-0.61 0.02c-0.01,0 -0.04,-0.01 -0.05,-0.01l-1.04 -0.09c-0.05,0 -0.05,-0.01 -0.15,0 -1.16,0.16 -0.26,-0.18 -1.42,0.04l-0.57 0.06c-0.01,-0.02 -0.03,-0.01 -0.04,0z"/>
   <path class="fil20" d="M52.43 6.92c0.21,0.51 0.63,0.27 1.64,0.22 1.01,-0.04 -0.04,-0.2 1.01,0.01 0.24,0.05 0.55,0.07 0.62,0.06 0.36,-0.04 0.06,-0.15 0.44,-0.11 0.19,0.02 0.22,0.14 0.64,0.17l0.05 -0.1c0.22,-0.24 -0.21,-0.08 0.18,-0.02l1.09 0c0.14,0.04 -0.19,0.14 0.31,0.06 0.02,0 0.05,-0.01 0.06,-0.01l0.2 -0.11c0.35,-0.11 -0.36,-0.17 0.2,0.01 0.02,0.01 0.12,0.07 0.16,0.08l0.08 -0.26c-0.57,-0.24 -0.76,-0.38 -1.5,-0.54 -1,-0.22 -2.68,-0.22 -3.7,-0.04 -0.26,0.05 -1.2,0.41 -1.48,0.58z"/>
   <polygon class="fil1" points="71.61,59.97 72.1,59.97 72.1,57.98 74.09,57.98 74.09,59.97 74.59,59.97 74.59,55.79 74.09,55.79 74.09,57.58 72.1,57.58 72.1,55.79 71.61,55.79 "/>
   <polygon class="fil1" points="11.59,59.97 12.08,59.97 12.08,57.98 14.07,57.98 14.07,59.97 14.57,59.97 14.57,55.79 14.07,55.79 14.07,57.58 12.08,57.58 12.08,55.79 11.59,55.79 "/>
   <path class="fil21" d="M57.27 15.97c0,0.1 -0.01,0.31 0.01,0.4 0.06,0.28 -0.01,0.14 0.13,0.3l0.04 -0.29c0.4,0.01 0.29,0.07 0.58,0.04 0.01,-0.01 0.04,-0.01 0.06,-0.01l1.74 0.04c0.69,0.01 0.65,-0.02 1.08,0 0.44,0.03 1.02,-0.03 1.19,-0.08l-0.02 0.3c0.36,-0.17 0.06,0.09 0.16,-0.3 0.01,-0.03 0.03,-0.34 0.03,-0.4 -0.03,-0.42 -0.04,-0.23 -0.13,-0.58 -0.85,0.24 -0.14,-0.11 -1.77,0.06l-0.23 0.02c-0.4,0.01 -0.35,-0.07 -0.68,0.03 -0.57,0.17 -0.11,0.12 -0.47,-0.01l-0.39 -0.04c-0.8,-0.09 -0.67,0 -1.31,0.04l-0.02 0.48z"/>
   <path class="fil1" d="M29 57.68c0,2.62 2.44,2.68 3.42,2.13 0.2,-0.11 0.21,-0.12 0.36,-0.25 0.26,-0.23 0.13,-0.05 0.31,-0.39l-0.22 -0.18c-0.5,0.12 -0.69,0.68 -1.58,0.68 -2.38,0 -2.38,-3.58 0,-3.58 0.89,0 1.08,0.56 1.6,0.7l0.17 -0.22c-0.72,-1.46 -4.06,-1.15 -4.06,1.11z"/>
   <path class="fil1" d="M17.16 56.79c0.24,0.17 0.62,1.06 0.7,1.39l-1.3 0c0.13,-0.54 0.47,-0.85 0.6,-1.39zm-1.99 3.18l0.6 0c0.12,-0.53 0.37,-0.96 0.59,-1.39l1.79 0c0.04,0.39 0.18,0.53 0.33,0.86 0.22,0.46 0.13,0.53 0.77,0.53 -0.35,-0.66 -0.61,-1.32 -0.96,-2.02l-0.93 -2.16c-0.38,0.1 -0.23,0.04 -0.41,0.39l-1.78 3.79z"/>
   <path class="fil22" d="M57.41 16.67l-0.04 0.96c0.11,-0.11 0.4,-0.55 0.63,-0.08 0.15,0.32 0,0.2 -0.02,0.23 0.13,-0.48 0.5,-0.53 0.87,-0.5 0.45,0.04 -0.02,-0.03 0.19,0.05 0.44,0.15 0.33,0.04 0.72,0.06l1.32 0.08c0.32,-0.03 0.63,-0.21 0.77,0 0.29,-0.19 0.11,0.18 0.25,-0.36 0.09,-0.34 0.05,-0.15 -0.02,-0.44l0.02 -0.3c-0.17,0.05 -0.75,0.11 -1.19,0.08 -0.43,-0.02 -0.39,0.01 -1.08,0l-1.74 -0.04c-0.02,0 -0.05,0 -0.06,0.01 -0.29,0.03 -0.18,-0.03 -0.58,-0.04l-0.04 0.29z"/>
   <path class="fil1" d="M35.57 56.79c0.25,0.17 0.62,1.06 0.7,1.39l-1.29 0c0.12,-0.54 0.47,-0.85 0.59,-1.39zm-1.99 3.18l0.6 0c0.12,-0.53 0.37,-0.96 0.6,-1.39l1.79 0c0.03,0.39 0.17,0.53 0.33,0.86 0.21,0.46 0.13,0.53 0.76,0.53 -0.35,-0.66 -0.61,-1.32 -0.96,-2.02 -0.19,-0.38 -0.27,-0.66 -0.46,-1.03 -0.21,-0.43 -0.35,-0.64 -0.47,-1.13 -0.37,0.1 -0.23,0.04 -0.4,0.39l-1.79 3.79z"/>
   <path class="fil1" d="M77.18 56.79c0.24,0.17 0.62,1.06 0.7,1.39l-1.3 0c0.13,-0.54 0.47,-0.85 0.6,-1.39zm-1.99 3.18l0.6 0c0.12,-0.53 0.37,-0.96 0.59,-1.39l1.8 0c0.03,0.39 0.17,0.53 0.32,0.86 0.22,0.46 0.13,0.53 0.77,0.53 -0.25,-0.47 -1.76,-3.63 -1.89,-4.18 -0.41,0.11 -0.26,0.11 -0.66,0.93l-1.53 3.25z"/>
   <path class="fil1" d="M58.07 56.79c0.24,0.17 0.62,1.06 0.7,1.39l-1.3 0c0.13,-0.54 0.47,-0.85 0.6,-1.39zm-1.99 3.18l0.6 0c0.12,-0.53 0.36,-0.96 0.59,-1.39l1.79 0c0.04,0.39 0.18,0.53 0.33,0.86 0.22,0.46 0.13,0.53 0.77,0.53 -0.25,-0.47 -1.77,-3.63 -1.89,-4.18 -0.38,0.1 -0.23,0.04 -0.41,0.39l-1.27 2.71c-0.16,0.41 -0.32,0.72 -0.51,1.08z"/>
   <path class="fil1" d="M49.11 59.97c0.46,0 0.37,0.08 0.62,-0.17 0.05,-0.06 0.25,-0.39 0.31,-0.49 0.18,-0.32 0.48,-0.71 0.56,-1.03 0.28,0.2 0.9,1.32 1.1,1.69l0.6 0c-1.66,-2.47 -1.41,-2.04 -0.74,-3.13 0.24,-0.39 0.4,-0.7 0.64,-1.05l-0.6 0c-0.15,0.56 -0.67,0.93 -0.8,1.49 -0.81,-0.21 -0.4,-1.49 -1.59,-1.49 0.07,0.27 0.41,0.74 0.58,1.01 0.9,1.5 0.68,0.61 -0.68,3.17z"/>
   <path class="fil11" d="M28.21 11.95c-0.12,0.11 -0.02,-0.13 -0.08,0.17 -0.03,0.15 -0.02,0.22 -0.03,0.36 -0.01,0.45 -0.02,0.39 -0.09,0.76 0.02,-0.02 0.05,-0.08 0.06,-0.06 0.01,0.02 0.05,-0.04 0.07,-0.05 0.33,-0.2 0.35,-0.16 0.67,-0.05 0.54,0.18 0.3,0.18 0.69,-0.09 0.52,0.18 -0.33,-0.23 0.12,0.08 0.02,0.02 0.09,0.08 0.12,0.09 0.6,0.35 1.12,-0.48 1.78,-0.01 0.13,0.1 0.07,0.04 0.17,0.14l0.08 -0.22c0.01,-0.02 0.02,-0.05 0.03,-0.08 0.03,-0.12 0.05,-0.21 0.08,-0.31 0.05,-0.21 0.11,-0.49 0.21,-0.63 -0.76,-0.16 -0.42,-0.18 -0.65,-0.07 -0.46,0.21 -0.22,0.05 -0.67,-0.03 -0.5,-0.08 -0.71,0.14 -1.32,0.07l-1.24 -0.07z"/>
   <path class="fil22" d="M28.37 16.77c-0.07,0.31 -0.04,0.53 0,0.73l0.13 0.47c0.07,0.16 0.04,0.1 0.12,0.19 -0.12,-0.63 -0.08,-0.17 0.11,-0.37 0.24,-0.24 0.08,-0.07 0.37,-0.09 0.65,-0.05 0.71,0.14 1.6,-0.03 0.29,-0.05 0.54,-0.07 0.99,0.09 0,-0.56 -0.09,-0.64 -0.1,-1.06 -0.12,-0.16 -0.1,0.24 -0.13,-0.31 -0.48,0.15 -0.98,0.01 -1.57,0.04l-1.14 0.01c-0.34,0.01 -0.1,0.05 -0.4,-0.04l0.02 0.37z"/>
   <path class="fil12" d="M56.97 21.75c0.65,-0.12 1.09,-0.01 1.78,-0.04l1.17 -0.01c0.01,0 0.04,-0.01 0.05,-0.01l0.09 0c0.5,-0.01 -0.25,0.08 0.41,-0.01l0.01 0.37c0.16,-0.29 0.37,-0.7 0.34,-1.1 -0.18,-0.45 -0.11,-0.25 -0.39,-0.3l-0.21 -0.02c-0.02,0 -0.05,-0.01 -0.06,-0.01l-0.77 0.02c-0.56,0.13 -0.41,-0.12 -0.9,-0.06l-0.46 0.01c-0.01,0 -0.04,0 -0.06,0l-0.36 0.04c-0.28,-0.03 0.08,-0.11 -0.44,-0.13 -0.11,0.38 -0.2,0.74 -0.2,1.25z"/>
   <path class="fil23" d="M57.17 20.25l0 0.25c0.52,0.02 0.16,0.1 0.44,0.13l0.36 -0.04c0.02,0 0.05,0 0.06,0l0.46 -0.01c0.49,-0.06 0.34,0.19 0.9,0.06l0.77 -0.02c0.01,0 0.04,0.01 0.06,0.01l0.21 0.02c0.28,0.05 0.21,-0.15 0.39,0.3 0.16,-0.14 0.03,0.04 0.19,-0.24 0.02,-0.03 0.14,-0.33 0.15,-0.35 0.09,-0.23 0.17,-0.38 0.19,-0.69 -0.39,-0.07 -0.74,-0.15 -1.07,-0.06 -0.02,0 -0.05,0.01 -0.07,0.01 -0.01,0.01 -0.04,0.02 -0.06,0.02l-0.4 0c-0.2,-0.03 0.04,0 -0.17,-0.02 -1.56,-0.2 -1.45,0.23 -1.98,-0.13l-0.33 0.58c-0.01,0.02 -0.04,0.1 -0.05,0.09 -0.01,-0.02 -0.03,0.06 -0.05,0.09z"/>
   <path class="fil12" d="M29.39 20.75c-0.12,0.42 0.24,0.85 0.34,1.3 0.02,-0.58 -0.12,-0.31 0.26,-0.4 0.56,-0.13 -0.2,0.06 0.28,0.07l2.32 0.15c-0.1,-0.47 -0.22,-0.92 -0.4,-1.32 -0.24,-0.23 -0.2,0.29 -0.2,-0.26 -0.72,0.33 -0.22,0.04 -0.94,0.05l-1.74 0.11 0.08 0.3z"/>
   <path class="fil1" d="M46.52 59.67c-0.66,-0.05 -0.4,-0.26 -0.89,-0.4l-0.18 0.22c0.31,0.64 1.37,0.99 1.83,-0.16 0.23,-0.56 1.4,-3.19 1.43,-3.54l-0.5 0c-0.02,0.33 -0.36,1 -0.48,1.31 -0.18,0.45 -0.4,0.9 -0.51,1.38 -0.31,-0.23 -0.89,-1.7 -1.09,-2.2 -0.17,-0.41 -0.12,-0.49 -0.7,-0.49l0.86 2.02c0.44,1.01 0.9,1.23 0.23,1.86z"/>
   <path class="fil1" d="M54.29 57.58l-0.9 0 0 -1.39c1.49,0 1.69,-0.03 1.69,0.89 0,0.31 -0.49,0.5 -0.79,0.5zm-1.3 2.39l0.4 0 0 -1.99c0.44,0 2.19,0.14 2.19,-0.8 0,-1.62 -0.68,-1.39 -2.59,-1.39l0 4.18z"/>
   <path class="fil10" d="M29.18 8.51c-0.17,0.23 -0.2,0.37 -0.27,0.7 0.01,0.01 0.06,0.21 0.49,0.12 0.37,-0.08 0.48,-0.14 0.59,-0.32 -0.25,0.09 -0.02,0.18 0.11,0.26 0.35,0.21 0.09,0.05 0.24,0.06 0.02,0 0.07,-0.01 0.1,-0.01 0.01,0 0.03,-0.01 0.05,0l0.57 -0.01c0.31,-0.04 0.21,0.03 0.56,0.05 0.59,0.04 0.3,-0.34 1.11,0 0.7,0.29 0.47,-0.05 1.15,0.02 0.47,-0.32 1.05,-0.88 1.69,-0.99 -1.17,-0.03 -0.57,-0.08 -0.79,0.07 -0.15,0.1 0.19,0.02 -0.2,0.1l-0.28 0.01c-1.04,0.28 -0.19,-0.13 -1.23,0.08 -0.02,0 -0.05,0.01 -0.06,0.01 -0.06,0.02 -0.14,0.07 -0.47,0.02 -0.99,-0.14 -0.39,0.05 -0.88,-0.03 -0.61,-0.1 -0.84,0.13 -1.62,0.01 -0.54,-0.08 -0.62,0.32 -0.86,-0.15z"/>
   <path class="fil24" d="M46.02 22.93l0 0.51c-0.06,0.22 -0.3,0.07 0.14,0.26 0.16,0.07 0.28,0.03 0.45,0.04 0.58,0.04 0.39,0.11 0.91,0.2 -0.27,-0.46 -0.11,-0.1 0.06,-0.24 0.05,0.04 0.32,0.01 0.33,0.01l1.09 -0.09c0.07,-0.01 1.75,0.01 2,0.12 -0.12,-0.36 -0.06,-0.32 -0.31,-0.59 -0.29,-0.31 -0.19,-0.27 -0.48,-0.21l-1.03 -0.01c-0.01,0 -0.03,0 -0.04,0l-2.67 -0.05c-0.27,-0.01 -0.28,-0.14 -0.45,0.05z"/>
   <path class="fil25" d="M28.01 14.08c0,0.09 -0.02,0.35 -0.01,0.41 0.05,0.64 -0.06,0.31 0.19,0.49 0.13,-0.14 1.04,0.01 1.28,0.03 0.56,0.05 0.69,-0.16 0.87,-0.03 0.23,0.15 -0.14,-0.24 0.06,0.17 0.46,-0.05 0.71,-0.02 1.09,-0.12l0.1 0.36 -0.04 -1.21 -0.06 -0.25c-0.8,-0.11 -0.51,0.08 -0.86,0.1 -0.32,0.01 0.08,-0.12 -0.74,-0.06 -0.34,0.03 -0.13,0.01 -0.33,-0.02 -0.04,0 -0.25,-0.04 -0.28,-0.04 -0.07,0 0.06,-0.02 -0.2,0.06 -0.61,0.2 -0.32,-0.29 -1.07,0.11z"/>
   <path class="fil16" d="M57.37 18.1c0,0.54 -0.09,0.54 -0.1,1.06 0.21,-0.23 0.3,-0.37 1,-0.38 0.56,0 0.56,0.07 1.15,0.05l0.67 -0.07c0.24,0.04 -0.23,-0.06 0.09,0.03 0.01,0.01 0.04,0.02 0.05,0.02 0.01,0.01 0.04,0.02 0.05,0.02 0.34,0.08 0.76,0.05 1.19,0.11l-0.12 0.42c0.28,-0.22 0.06,0.03 0.22,-0.28 0.02,-0.04 0.09,-0.27 0.12,-0.38 0.06,-0.21 0.14,-0.48 0.16,-0.66 -0.31,-0.05 -0.27,-0.04 -0.52,-0.15 -0.61,-0.25 -0.32,0.14 -1.03,0.17 -1.48,0.06 -1.12,0.13 -1.63,0.17 -0.06,-0.16 0.16,0.11 0,-0.25 -1.19,0.22 -0.74,-0.03 -1.3,0.12z"/>
   <path class="fil17" d="M57.27 19.16l-0.1 1.09c0.02,-0.03 0.04,-0.11 0.05,-0.09 0.01,0.01 0.04,-0.07 0.05,-0.09l0.33 -0.58c0.53,0.36 0.42,-0.07 1.98,0.13 0.21,0.02 -0.03,-0.01 0.17,0.02l0.4 0c0.02,0 0.05,-0.01 0.06,-0.02 0.02,0 0.05,-0.01 0.07,-0.01 0.33,-0.09 0.68,-0.01 1.07,0.06 0.16,-0.19 0.13,-0.05 0,-0.31l0.12 -0.42c-0.43,-0.06 -0.85,-0.03 -1.19,-0.11 -0.01,0 -0.04,-0.01 -0.05,-0.02 -0.01,0 -0.04,-0.01 -0.05,-0.02 -0.32,-0.09 0.15,0.01 -0.09,-0.03l-0.67 0.07c-0.59,0.02 -0.59,-0.05 -1.15,-0.05 -0.7,0.01 -0.79,0.15 -1,0.38z"/>
   <path class="fil26" d="M28.62 18.16c-0.01,0.21 -0.04,0.26 0.02,0.46 0.15,0.52 0.03,0.16 0.21,0.34 0,-0.36 -0.23,-0.14 0.17,-0.28 0.41,-0.15 -0.03,0.09 0.74,-0.03 0.11,-0.02 -0.09,-0.03 0.19,-0.02 0.03,0.01 0.16,0.04 0.17,0.04 1.03,0.14 0.68,0.03 1.49,-0.02 0,0 0.07,0.11 0.1,0.15l0.18 0.21c-0.03,-0.39 -0.15,-0.9 -0.2,-1.25 -0.45,-0.16 -0.7,-0.14 -0.99,-0.09 -0.89,0.17 -0.95,-0.02 -1.6,0.03 -0.29,0.02 -0.13,-0.15 -0.37,0.09 -0.19,0.2 -0.23,-0.26 -0.11,0.37z"/>
   <path class="fil19" d="M28.01 13.24l0 0.84c0.75,-0.4 0.46,0.09 1.07,-0.11 0.26,-0.08 0.13,-0.06 0.2,-0.06 0.03,0 0.24,0.04 0.28,0.04 0.2,0.03 -0.01,0.05 0.33,0.02 0.82,-0.06 0.42,0.07 0.74,0.06 0.35,-0.02 0.06,-0.21 0.86,-0.1l0.06 0.25c0.19,-0.21 0.08,0.24 0.15,-0.39 0.01,-0.1 -0.01,-0.38 -0.01,-0.5 -0.1,-0.1 -0.04,-0.04 -0.17,-0.14 -0.66,-0.47 -1.18,0.36 -1.78,0.01 -0.03,-0.01 -0.1,-0.07 -0.12,-0.09 -0.45,-0.31 0.4,0.1 -0.12,-0.08 -0.39,0.27 -0.15,0.27 -0.69,0.09 -0.32,-0.11 -0.34,-0.15 -0.67,0.05 -0.02,0.01 -0.06,0.07 -0.07,0.05 -0.01,-0.02 -0.04,0.04 -0.06,0.06z"/>
   <path class="fil27" d="M28.21 11.55c0.92,-0.34 1.27,-0.05 2.1,-0.1 0.33,-0.02 0.66,0.01 1.02,0.01l0.48 -0.08c0.07,-0.01 0.05,-0.03 0.23,-0.02 0.22,0.01 0.06,-0.02 0.25,0.04 0.27,-0.2 0.26,-0.32 0.4,-0.64 -0.16,0 -0.34,-0.01 -0.47,-0.01 -0.04,0 -0.12,0 -0.15,0 -0.4,0.02 -0.03,0.09 -0.77,-0.04 -0.01,-0.01 -0.04,-0.02 -0.05,-0.02l-0.41 -0.01c-0.01,0 -0.04,0 -0.05,0l-0.14 0c-0.01,0 -0.04,0 -0.05,0.01l-0.2 0.01c-0.26,-0.02 -0.12,-0.17 -0.73,-0.06l-0.11 0.03c-0.01,0 -0.04,0.01 -0.05,0.01 0,0 -0.03,0 -0.04,0 -0.21,-0.01 0.14,0.01 -0.09,-0.02l-0.11 -0.02c-0.65,-0.05 -0.48,0.23 -0.77,-0.14 -0.05,0.07 -0.05,0.05 -0.1,0.19 -0.07,0.19 -0.04,0.08 -0.08,0.32 -0.06,0.32 -0.03,0.26 -0.11,0.54z"/>
   <path class="fil28" d="M39.56 8c0.1,0.07 0.03,0.04 0.2,0.1 1.36,0.5 1.31,0.3 3.05,1.24 0.33,0.18 0.69,0.47 1.03,0.56 -0.06,-0.26 -0.34,-0.83 -0.47,-1.12 -0.16,-0.34 -0.43,-0.78 -0.73,-0.94 -0.2,0.1 -0.33,0.07 -0.73,0.13 -0.03,0 -0.16,0.02 -0.18,0.03 -0.01,0 -0.03,0.01 -0.04,0.01 -0.02,0 -1.28,0 -1.59,-0.12l-0.38 -0.15c-0.11,0.36 -0.02,0.11 -0.16,0.26z"/>
   <path class="fil29" d="M57.37 17.63l0 0.47c0.56,-0.15 0.11,0.1 1.3,-0.12 0.16,0.36 -0.06,0.09 0,0.25 0.51,-0.04 0.15,-0.11 1.63,-0.17 0.71,-0.03 0.42,-0.42 1.03,-0.17 0.25,0.11 0.21,0.1 0.52,0.15 0.19,-0.3 0.12,-0.29 0,-0.57 -0.14,-0.21 -0.45,-0.03 -0.77,0l-1.32 -0.08c-0.39,-0.02 -0.28,0.09 -0.72,-0.06 -0.21,-0.08 0.26,-0.01 -0.19,-0.05 -0.37,-0.03 -0.74,0.02 -0.87,0.5 0.02,-0.03 0.17,0.09 0.02,-0.23 -0.23,-0.47 -0.52,-0.03 -0.63,0.08z"/>
   <path class="fil30" d="M28.26 16.17l0.02 -0.47c0.17,0.02 0.29,0.11 0.31,0.12 0.59,0.17 -0.48,0.01 0.13,0.01l2.67 0 0.2 0.44 0 -0.88 -0.1 -0.36c-0.38,0.1 -0.63,0.07 -1.09,0.12 -0.2,-0.41 0.17,-0.02 -0.06,-0.17 -0.18,-0.13 -0.31,0.08 -0.87,0.03 -0.24,-0.02 -1.15,-0.17 -1.28,-0.03 -0.09,0.27 -0.09,0.28 -0.1,0.6 0,0.01 0.02,0.29 0.02,0.29 0.07,0.3 -0.02,0.13 0.15,0.3z"/>
   <polygon class="fil1" points="60.36,56.19 61.25,56.19 61.25,59.97 61.75,59.97 61.75,56.19 62.65,56.19 62.65,55.79 60.36,55.79 "/>
   <path class="fil14" d="M29.1 19.66c-0.1,0.27 -0.09,0.42 -0.03,0.61 0.05,0.17 0.03,0.12 0.1,0.22 0.16,0.26 -0.02,0.08 0.22,0.26l-0.08 -0.3 1.74 -0.11c0.72,-0.01 0.22,0.28 0.94,-0.05 0,0.55 -0.04,0.03 0.2,0.26 -0.03,-0.51 -0.15,-0.51 -0.2,-0.89 -0.23,-0.24 -0.17,0.28 -0.2,-0.27 -0.05,0.26 -0.01,0.11 -0.24,0.12 -0.03,0.01 -0.24,-0.01 -0.39,0 -1.4,0.12 -0.81,0 -1.33,0.03l-0.23 0c-0.11,0 -0.09,0.01 -0.2,-0.01 -0.35,-0.07 -0.06,0.12 -0.34,-0.14l0.04 0.27z"/>
   <path class="fil31" d="M28.85 18.96c-0.03,0.16 -0.08,0.15 -0.02,0.38 0.14,0.53 0.01,0.16 0.27,0.32l-0.04 -0.27c0.28,0.26 -0.01,0.07 0.34,0.14 0.11,0.02 0.09,0.01 0.2,0.01l0.23 0c0.52,-0.03 -0.07,0.09 1.33,-0.03 0.15,-0.01 0.36,0.01 0.39,0 0.23,-0.01 0.19,0.14 0.24,-0.12 0.03,0.55 -0.03,0.03 0.2,0.27 0,-0.44 0,-0.35 -0.1,-0.65l-0.18 -0.21c-0.03,-0.04 -0.1,-0.15 -0.1,-0.15 -0.81,0.05 -0.46,0.16 -1.49,0.02 -0.01,0 -0.14,-0.03 -0.17,-0.04 -0.28,-0.01 -0.08,0 -0.19,0.02 -0.77,0.12 -0.33,-0.12 -0.74,0.03 -0.4,0.14 -0.17,-0.08 -0.17,0.28z"/>
   <path class="fil32" d="M40.95 17.96c0.47,-0.03 1.28,0 1.89,0.02 0.13,0.18 -0.19,0.16 0.12,0.11 0.2,-0.04 -0.09,-0.1 0.28,-0.13 0.26,-0.02 -0.01,0.15 0.93,0.05 0.02,0 0.05,-0.01 0.07,-0.01l0.14 -0.01c0.02,0 0.04,-0.01 0.06,-0.01l0.34 0.04c0.73,0.2 -0.05,-0.21 0.85,0.04 -0.22,-0.35 0.04,-0.01 -0.17,-0.2 -0.08,-0.07 -0.17,-0.13 -0.26,-0.17 -0.95,-0.48 -2.19,-0.47 -3.2,-0.27 -0.23,0.05 -0.36,0.09 -0.54,0.15 -0.36,0.13 -0.39,0.2 -0.51,0.39z"/>
   <path class="fil33" d="M56.08 25.53c-0.13,0.08 -0.07,-0.01 -0.18,0.31 -0.11,0.3 -0.1,0.19 -0.12,0.58 0.43,-0.37 -0.06,-0.1 0.84,-0.23 0.47,-0.07 0.23,0.14 1.1,0.06 0.23,-0.02 0.42,-0.07 0.55,0.18 0.01,-0.01 0.23,-0.05 0.3,-0.1 0.04,-0.53 0.19,-0.27 0.1,-0.7l0.11 -0.32 -0.58 0.11c0,0 -0.02,0 -0.03,0l-0.17 -0.01c-0.01,0 -0.04,0 -0.05,-0.01l-0.39 0c-0.71,0.1 -0.44,-0.19 -1.12,0.02l-0.36 0.11z"/>
   <path class="fil33" d="M31.49 25.53c-0.06,0.28 -0.09,0.2 0.09,0.5 0.06,0.1 0.05,0.09 0.13,0.18 0.17,0.17 0.05,0.07 0.28,0.22 0.16,-0.44 0.3,-0.26 0.54,-0.22l0.9 0.07c0.29,0.06 0.09,0.03 0.33,-0.05 0.27,-0.11 0.52,0.19 0.72,0.37 -0.07,-0.37 -0.08,-0.33 -0.23,-0.65 -0.04,-0.08 -0.08,-0.18 -0.13,-0.26 -0.16,-0.26 0.01,-0.08 -0.14,-0.16 -0.67,-0.37 -0.54,-0.15 -1.26,-0.13 -0.51,0.01 -1.04,-0.21 -1.23,0.13z"/>
   <path class="fil34" d="M56.28 24.83c-0.18,0.15 -0.18,0.39 -0.2,0.7l0.36 -0.11c0.68,-0.21 0.41,0.08 1.12,-0.02l0.39 0c0.01,0.01 0.04,0.01 0.05,0.01l0.17 0.01c0.01,0 0.03,0 0.03,0l0.58 -0.11 -0.11 0.32c0.34,-0.15 0.14,0.03 0.33,-0.28l0.07 -0.2c0.03,-0.16 0.05,0.04 -0.01,-0.22 0.17,-0.6 0.06,-0.1 0.03,-0.32l-2.55 -0.01c-0.06,0.11 -0.17,0.15 -0.26,0.23z"/>
   <path class="fil35" d="M56.78 22.74c-0.17,0.15 -0.1,0.16 -0.1,0.48l1.64 0.09c0.62,0.09 0.68,-0.11 1.11,-0.04 0.55,0.08 0.21,-0.08 0.33,0.17l0.14 -0.12c0.38,-0.43 0.23,-0.37 0.16,-0.58l0.03 -0.2c-0.5,0.18 -0.18,0.09 -0.82,0.06 -0.52,-0.02 -0.91,0.09 -1.66,0.03 -0.63,-0.06 -0.33,-0.22 -0.83,0.11z"/>
   <path class="fil4" d="M28.21 11.55l0 0.4 1.24 0.07c0.61,0.07 0.82,-0.15 1.32,-0.07 0.45,0.08 0.21,0.24 0.67,0.03 0.23,-0.11 -0.11,-0.09 0.65,0.07l0.2 -0.65c-0.19,-0.06 -0.03,-0.03 -0.25,-0.04 -0.18,-0.01 -0.16,0.01 -0.23,0.02l-0.48 0.08c-0.36,0 -0.69,-0.03 -1.02,-0.01 -0.83,0.05 -1.18,-0.24 -2.1,0.1z"/>
   <path class="fil36" d="M48.71 25.33c-0.15,0.41 -0.02,0.33 0,0.8 0.16,-0.07 0.35,-0.17 0.36,-0.17 0.41,-0.11 0.29,0.1 0.61,-0.01l0.68 -0.06c0.57,-0.01 -0.02,0.2 0.69,0.09 0.36,-0.05 0.17,-0.01 0.55,-0.01 0.03,-0.26 0.05,-0.19 0.05,-0.34 0,-0.13 -0.04,-0.2 -0.05,-0.47l-2.89 0.17z"/>
   <path class="fil37" d="M37.57 26.28l0.03 0.35c-0.02,0.16 -0.06,0.43 -0.05,0.6 0.05,0.7 -0.04,0.32 0.21,0.49l0.2 -0.59c0.18,0.01 0.03,-0.02 0.16,0.01 0.19,0.03 0.13,0.08 0.32,0.14 0.5,0.14 -0.01,-0.05 0.52,-0.08l0.2 0.02c0.13,0.31 0.04,1.06 0.08,1.6l0.12 0.58c0,-0.7 0.14,-1.65 -0.1,-2.28l0 -1.03c-0.17,0.21 -0.35,0.13 -0.99,0.11l-0.11 -0.01c-0.02,0 -0.09,0 -0.11,0 -0.11,0.01 -0.3,0.04 -0.48,0.09z"/>
   <path class="fil38" d="M44.93 21.15c0.02,0.34 0.33,0.21 0.69,0.8l0.22 0.4 0.01 -0.31c0.23,0.11 1.1,0.07 1.29,0.06 0.42,0 0.96,0.07 1.57,0.08l-0.43 -0.17c-0.24,-0.03 -0.11,0.01 -0.46,0.04l-0.2 -0.3c-0.3,-0.19 -0.2,-0.33 -0.2,-0.7l-0.39 0.07c-0.44,0.21 -0.34,0 -1.11,0.17l-0.47 0c-0.24,-0.06 -0.33,-0.18 -0.52,-0.14z"/>
   <path class="fil39" d="M28.26 16.17c-0.04,0.16 -0.08,0.05 -0.04,0.3 0.06,0.31 -0.06,0.13 0.15,0.3l-0.02 -0.37c0.3,0.09 0.06,0.05 0.4,0.04l1.14 -0.01c0.59,-0.03 1.09,0.11 1.57,-0.04 0.03,0.55 0.01,0.15 0.13,0.31l0 -0.43 -0.2 -0.44 -2.67 0c-0.61,0 0.46,0.16 -0.13,-0.01 -0.02,-0.01 -0.14,-0.1 -0.31,-0.12l-0.02 0.47z"/>
   <path class="fil34" d="M31.19 25.03c-0.06,0.28 -0.11,0.06 0.04,0.28 0.13,0.21 0.03,0.08 0.26,0.22 0.19,-0.34 0.72,-0.12 1.23,-0.13 0.72,-0.02 0.59,-0.24 1.26,0.13 -0.04,-0.27 -0.04,-0.31 -0.13,-0.57 -0.01,-0.01 -0.1,-0.2 -0.1,-0.2 -0.13,-0.2 -0.08,-0.12 -0.17,-0.19 -0.23,0.02 -0.33,0.18 -0.68,0.04 -0.92,-0.36 0.24,0.1 -0.87,-0.02l-0.36 0.03c-0.17,0.03 -0.38,0.06 -0.62,0.01l0.14 0.4z"/>
   <path class="fil40" d="M37.86 22.37c-0.13,0.24 -0.19,0.58 -0.2,0.97 0.03,-0.03 0.05,-0.12 0.07,-0.1l0.18 -0.29c0.28,-0.28 -0.17,-0.02 0.7,-0.06 0.62,-0.03 0.26,0.12 0.69,0.02 0.19,-0.04 -0.05,-0.03 0.13,-0.02 0.72,0.02 0.52,-0.12 0.62,0.15 0.37,-0.15 0.06,0.08 0.24,-0.14 0.15,-0.19 0.08,-0.1 0.07,-0.26 0.07,-0.21 -0.02,-0.16 0.08,-0.25l-0.44 -0.23c-0.2,0.1 -1.39,-0.21 -1.88,0.03l-0.26 0.18z"/>
   <path class="fil41" d="M48.71 26.13l0 0.58c0.26,-0.1 0.08,-0.02 0.29,-0.05 0.59,-0.11 0.51,-0.21 0.75,-0.12l0.37 0.12c1.11,0.1 1.2,-0.45 1.08,0.26 0.21,-0.13 0.14,0.12 0.33,-0.37 0.05,-0.15 0.06,-0.31 0.07,-0.58 -0.38,0 -0.19,-0.04 -0.55,0.01 -0.71,0.11 -0.12,-0.1 -0.69,-0.09l-0.68 0.06c-0.32,0.11 -0.2,-0.1 -0.61,0.01 -0.01,0 -0.2,0.1 -0.36,0.17z"/>
   <path class="fil35" d="M30.1 22.8c0.02,0.1 0.07,0.36 0.11,0.43 0.19,0.38 0,0.13 0.29,0.31l-0.03 -0.33c0.28,0.04 0.23,0.05 0.43,0.06 0.02,0 0.05,0 0.08,0l1.27 -0.02c0.41,0.02 0.6,0.07 0.93,0.29 -0.04,-0.28 -0.13,-0.65 -0.29,-0.8 -0.81,-0.27 -1.69,-0.08 -2.18,-0.08 -0.32,0 -0.41,-0.1 -0.61,0.14z"/>
   <path class="fil42" d="M47.52 23.94c-0.02,0.12 -0.27,0.1 0.1,0.1 0.21,0.37 -0.02,0.06 0.3,0.2 0.1,-0.2 -0.23,-0.2 0.91,-0.08 0.01,0 0.04,0 0.06,0.01l2.41 0.03c-0.05,-0.26 0.01,-0.18 -0.1,-0.35 -0.17,-0.25 0,-0.11 -0.2,-0.11 -0.25,-0.11 -1.93,-0.13 -2,-0.12l-1.09 0.09c-0.01,0 -0.28,0.03 -0.33,-0.01 -0.17,0.14 -0.33,-0.22 -0.06,0.24z"/>
   <path class="fil34" d="M48.51 24.93c-0.14,0.27 -0.12,0.1 0,0.2 0,0.4 -0.03,0.04 0.2,0.2l2.89 -0.17c0,-0.07 0.01,-0.25 -0.01,-0.31 -0.07,-0.27 0.04,-0.06 -0.09,-0.17l-1.19 -0.06c-0.39,0.05 -1.61,0.09 -1.96,-0.01l0.16 0.32z"/>
   <path class="fil37" d="M31.99 26.43c-0.05,0.2 -0.13,0.04 0.02,0.37 0.14,0.32 0.08,0.2 0.38,0.32l0.73 -0.19c0.01,0 0.04,-0.01 0.05,-0.01 0.01,0 0.04,0 0.04,0 0.01,0 0.04,0.01 0.05,0.01 0.14,0.01 -0.02,0.04 0.19,0.02 0.01,0 0.04,-0.01 0.05,-0.01l0.27 -0.07c0.47,0.01 -0.21,0.04 0.27,0.1 0.09,0.01 0.13,-0.02 0.16,-0.02 0.02,-0.01 -0.15,-0.26 0.29,0.04l0.29 0.23c-0.08,-0.42 -0.01,-0.14 -0.12,-0.38 -0.13,-0.29 -0.09,-0.18 -0.18,-0.24 -0.2,-0.18 -0.45,-0.48 -0.72,-0.37 -0.24,0.08 -0.04,0.11 -0.33,0.05l-0.9 -0.07c-0.24,-0.04 -0.38,-0.22 -0.54,0.22z"/>
   <path class="fil37" d="M55.78 26.42c-0.21,0.18 -0.2,0.29 -0.2,0.66 0.46,-0.3 -0.03,-0.12 0.9,-0.19l0.07 0.11c0.12,0.21 0.01,0.02 0.03,0.05 0.31,-0.19 0.07,0.02 0.19,-0.23l0.31 0c0.08,0.18 0.13,0.19 0.12,0.33 0.27,-0.3 0.09,-0.23 0.57,-0.33 -0.16,0.27 -0.12,0.05 0.07,0.17l-0.07 0.33c0.34,-0.21 0.02,0.03 0.21,-0.17 0,0 0.18,-0.23 0.19,-0.24 0.2,-0.33 0.18,-0.16 0.1,-0.48 -0.13,-0.25 -0.32,-0.2 -0.55,-0.18 -0.87,0.08 -0.63,-0.13 -1.1,-0.06 -0.9,0.13 -0.41,-0.14 -0.84,0.23z"/>
   <path class="fil43" d="M37.56 23.99c-0.03,0.54 -0.25,1.98 0,2.57 0,0.01 0.02,0.04 0.04,0.07l-0.03 -0.35 0.04 -0.89 0.07 -0.82c0.14,0.15 -0.07,0.03 0.12,0.02 0.02,-0.01 0.09,-0.02 0.11,-0.02 0.54,-0.03 0.11,0.15 0.68,-0.03l0.36 0.08c0.22,0.07 0.26,-0.09 0.55,-0.03l-0.04 0.54c0.23,-0.18 0.13,-0.02 0.22,-0.38 0.07,-0.25 0.06,-0.27 -0.02,-0.51l-0.05 -0.34c-0.13,0.1 -1.26,0.04 -1.53,0 -0.33,-0.04 -0.3,0.04 -0.52,0.09z"/>
   <path class="fil44" d="M48.51 24.93l-0.16 -0.32c0.35,0.1 1.57,0.06 1.96,0.01l1.19 0.06c0,-0.21 0.01,-0.13 -0.05,-0.29 -0.08,-0.21 -0.07,-0.13 -0.15,-0.19l-2.41 -0.03c-0.02,-0.01 -0.05,-0.01 -0.06,-0.01 -1.14,-0.12 -0.81,-0.12 -0.91,0.08 0,0.12 -0.11,0.11 0.31,0.48l0.28 0.21z"/>
   <path class="fil45" d="M56.97 21.75l-0.1 0.43c0.55,-0.24 1.18,0.02 1.68,0 1.35,-0.07 0.89,0.11 1.61,0.07l0.09 0.29c0.07,-0.09 0.04,-0.03 0.11,-0.19 0.07,-0.13 0.06,-0.12 0.12,-0.3l-0.01 -0.37c-0.66,0.09 0.09,0 -0.41,0.01l-0.09 0c-0.01,0 -0.04,0.01 -0.05,0.01l-1.17 0.01c-0.69,0.03 -1.13,-0.08 -1.78,0.04z"/>
   <path class="fil33" d="M37.61 25.39l-0.04 0.89c0.18,-0.05 0.37,-0.08 0.48,-0.09 0.02,0 0.09,0 0.11,0l0.11 0.01c0.64,0.02 0.82,0.1 0.99,-0.11l0 1.03c0.43,-0.18 0.04,0.1 0.16,-0.22 0.03,-0.1 0.05,-0.26 0.06,-0.37 0.01,-0.34 -0.01,-0.51 -0.12,-0.8l0.04 -0.34 -1.33 -0.02c-0.34,0.08 0.01,0.13 -0.46,0.02z"/>
   <path class="fil46" d="M56.48 24.04c0.24,-0.2 0.2,0.26 0.2,-0.27 0.35,-0.02 -0.15,0.02 0.28,0.02l0.37 -0.06c0.26,-0.1 -0.07,-0.13 0.22,-0.04 0.35,0.1 -0.07,0.09 0.36,0.08 0.46,-0.01 0.57,-0.13 1.02,-0.08 0,0 0.19,0.03 0.21,0.04l0.16 0.03c0,0.01 0.14,-0.03 0.16,0.28 0.24,-0.15 0.13,-0.01 0.27,-0.23 0.2,-0.36 0.08,-0.18 0.03,-0.37 -0.12,-0.25 0.22,-0.09 -0.33,-0.17 -0.43,-0.07 -0.49,0.13 -1.11,0.04l-1.64 -0.09c-0.09,0.16 -0.04,-0.01 -0.13,0.29 -0.04,0.18 -0.06,0.24 -0.07,0.53z"/>
   <path class="fil47" d="M56.87 22.18c-0.13,0.11 -0.09,0.32 -0.09,0.56 0.5,-0.33 0.2,-0.17 0.83,-0.11 0.75,0.06 1.14,-0.05 1.66,-0.03 0.64,0.03 0.32,0.12 0.82,-0.06l-0.03 0.2c0.25,-0.07 0.21,0.13 0.19,-0.2l-0.09 -0.29c-0.72,0.04 -0.26,-0.14 -1.61,-0.07 -0.5,0.02 -1.13,-0.24 -1.68,0z"/>
   <path class="fil40" d="M46.02 22.93c0.17,-0.19 0.18,-0.06 0.45,-0.05l2.67 0.05c0.01,0 0.03,0 0.04,0l1.03 0.01c-0.16,-0.37 0.07,-0.06 -0.15,-0.23 -0.19,-0.15 -0.09,-0.08 -0.25,-0.07l-3.43 -0.23c-0.11,0 0.09,-0.24 -0.36,0.13l0 0.39z"/>
   <path class="fil47" d="M45.84 22.35c0,0.13 -0.04,0.48 -0.03,0.6 0.06,0.7 -0.05,0.32 0.21,0.49l0 -0.51 0 -0.39c0.45,-0.37 0.25,-0.13 0.36,-0.13l3.43 0.23c-0.22,-0.35 0.05,-0.01 -0.17,-0.2 -0.07,-0.07 -0.18,-0.13 -0.27,-0.17 -0.24,-0.11 -0.38,-0.12 -0.66,-0.09 -0.61,-0.01 -1.15,-0.08 -1.57,-0.08 -0.19,0.01 -1.06,0.05 -1.29,-0.06l-0.01 0.31z"/>
   <path class="fil34" d="M37.61 25.39c0.47,0.11 0.12,0.06 0.46,-0.02l1.33 0.02 -0.04 0.34c0.36,-0.15 0.1,0.09 0.16,-0.22 0.08,-0.42 0.02,-0.17 -0.06,-0.38l0.04 -0.54c-0.29,-0.06 -0.33,0.1 -0.55,0.03l-0.36 -0.08c-0.57,0.18 -0.14,0 -0.68,0.03 -0.02,0 -0.09,0.01 -0.11,0.02 -0.19,0.01 0.02,0.13 -0.12,-0.02l-0.07 0.82z"/>
   <path class="fil48" d="M48.71 26.71l-0.2 0.71c0.16,-0.1 0.13,-0.27 0.44,-0.31 0.02,0 0.06,0 0.08,0l0.2 0.11c0,0 -0.01,0.01 -0.02,0l0.7 -0.14c0.11,0.21 -0.05,0.3 0.1,0.14l0.07 0.06c0.5,-0.16 -0.05,-0.19 0.54,-0.18 0.22,0 0.08,0.02 0.38,-0.04l0 0.26c0.02,0 0.23,-0.04 0.3,-0.1l-0.1 -0.3c0.12,-0.71 0.03,-0.16 -1.08,-0.26l-0.37 -0.12c-0.24,-0.09 -0.16,0.01 -0.75,0.12 -0.21,0.03 -0.03,-0.05 -0.29,0.05z"/>
   <path class="fil47" d="M29.95 22.35c0,0.15 -0.01,0.11 0.02,0.23 0.06,0.2 0.07,0.16 0.13,0.22 0.2,-0.24 0.29,-0.14 0.61,-0.14 0.49,0 1.37,-0.19 2.18,0.08 -0.06,-0.35 -0.02,-0.31 -0.2,-0.54l-1.23 -0.1c-0.02,0.01 -0.04,0.01 -0.05,0.01l-0.32 0.01c0,0.01 -0.02,0.02 -0.02,0.02 -0.29,0.08 -0.88,0.01 -1.1,-0.07l-0.02 0.28z"/>
   <path class="fil44" d="M56.28 24.83c0.09,-0.08 0.2,-0.12 0.26,-0.23l2.55 0.01c0.03,0.22 0.14,-0.28 -0.03,0.32 0.25,-0.1 0.2,0.17 0.2,-0.2 0.17,-0.13 0.07,0.04 0,-0.19l0.07 -0.36c-0.38,-0.09 -1.32,-0.03 -1.53,0 -0.28,0.03 -0.97,-0.05 -1.32,-0.07 -0.17,0.29 -0.18,0.32 -0.2,0.72z"/>
   <path class="fil46" d="M30.5 23.54c-0.15,0.27 -0.12,0.1 0,0.2 0,0.4 -0.04,0.04 0.2,0.2l0 -0.22c0.25,0.09 0,0.04 0.31,0.06l1.78 -0.03c0.05,0 0.29,0.05 0.29,0.05 0.01,0.01 0.03,0.02 0.05,0.03 0.01,0.01 0.04,0.03 0.05,0.04l0.13 0.11c0.02,0.01 0.05,0.04 0.07,0.06 0,-0.28 -0.05,-0.38 -0.2,-0.5 -0.33,-0.22 -0.52,-0.27 -0.93,-0.29l-1.27 0.02c-0.03,0 -0.06,0 -0.08,0 -0.2,-0.01 -0.15,-0.02 -0.43,-0.06l0.03 0.33z"/>
   <path class="fil45" d="M37.96 21.93c-0.13,0.22 -0.1,0.04 -0.1,0.44l0.26 -0.18c0.49,-0.24 1.68,0.07 1.88,-0.03 0.11,-0.1 0.06,-0.3 0.65,-0.11l0 0.3c0.21,-0.16 0.09,-0.06 0.25,-0.26 0.16,-0.21 0.14,-0.17 0.21,-0.34 -0.21,-0.31 -0.29,-0.06 -0.32,-0.06 -0.42,0.11 -0.64,-0.06 -1.22,0.02l-1.21 0c-0.44,0.06 -0.08,-0.18 -0.4,0.22z"/>
   <path class="fil44" d="M30.9 24.34c-0.04,0.16 -0.12,0.11 0,0.38 0.2,0.49 0.02,0.14 0.29,0.31l-0.14 -0.4c0.24,0.05 0.45,0.02 0.62,-0.01l0.36 -0.03c1.11,0.12 -0.05,-0.34 0.87,0.02 0.35,0.14 0.45,-0.02 0.68,-0.04 0,-0.58 0.03,-0.22 -0.1,-0.23l-0.14 -0.26c-0.39,0.09 -0.32,0.09 -0.69,0.08 -0.21,0 -0.36,-0.02 -0.53,-0.01 -0.18,0 -0.37,0.04 -0.69,0.02l-0.44 0c-0.01,-0.02 -0.03,0 -0.07,0.01l-0.02 0.16z"/>
   <path class="fil46" d="M37.66 23.44c-0.12,0.27 -0.1,0.14 -0.1,0.55 0.22,-0.05 0.19,-0.13 0.52,-0.09 0.27,0.04 1.4,0.1 1.53,0l0.05 0.34c0.33,-0.14 0.1,0.01 0.2,-0.3 0.1,-0.3 0.03,-0.24 -0.01,-0.4 0.03,-0.22 -0.04,-0.13 0.1,-0.2l-0.39 0.07c-0.51,0 0.18,0.02 -0.17,-0.02l-1.73 0.05z"/>
   <path class="fil49" d="M56.48 24.04l0 0.07c0.35,0.02 1.04,0.1 1.32,0.07 0.21,-0.03 1.15,-0.09 1.53,0l-0.07 0.36c0.4,-0.17 0.07,0.08 0.19,-0.2 0.11,-0.26 0.09,0 0.01,-0.3 -0.02,-0.31 -0.16,-0.27 -0.16,-0.28l-0.16 -0.03c-0.02,-0.01 -0.21,-0.04 -0.21,-0.04 -0.45,-0.05 -0.56,0.07 -1.02,0.08 -0.43,0.01 -0.01,0.02 -0.36,-0.08 -0.29,-0.09 0.04,-0.06 -0.22,0.04l-0.37 0.06c-0.43,0 0.07,-0.04 -0.28,-0.02 0,0.53 0.04,0.07 -0.2,0.27z"/>
   <path class="fil24" d="M37.66 23.34l0 0.1 1.73 -0.05c0.35,0.04 -0.34,0.02 0.17,0.02l0.39 -0.07c-0.14,0.07 -0.07,-0.02 -0.1,0.2 0.21,-0.09 0.21,0.05 0.24,-0.32 0.04,-0.41 0.17,0.43 -0.04,-0.18 -0.1,-0.27 0.1,-0.13 -0.62,-0.15 -0.18,-0.01 0.06,-0.02 -0.13,0.02 -0.43,0.1 -0.07,-0.05 -0.69,-0.02 -0.87,0.04 -0.42,-0.22 -0.7,0.06l-0.18 0.29c-0.02,-0.02 -0.04,0.07 -0.07,0.1z"/>
   <path class="fil45" d="M29.73 22.05c0.17,0.48 0,0.13 0.22,0.3l0.02 -0.28c0.22,0.08 0.81,0.15 1.1,0.07 0,0 0.02,-0.01 0.02,-0.02l0.32 -0.01c0.01,0 0.03,0 0.05,-0.01l1.23 0.1c0,-0.5 -0.01,-0.25 -0.1,-0.33l-2.32 -0.15c-0.48,-0.01 0.28,-0.2 -0.28,-0.07 -0.38,0.09 -0.24,-0.18 -0.26,0.4z"/>
   <path class="fil49" d="M30.7 23.94c-0.15,0.26 -0.12,0.1 0,0.2 0,0.4 -0.04,0.04 0.2,0.2l0.02 -0.16c0.04,-0.01 0.06,-0.03 0.07,-0.01l0.44 0c0.32,0.02 0.51,-0.02 0.69,-0.02 0.17,-0.01 0.32,0.01 0.53,0.01 0.37,0.01 0.3,0.01 0.69,-0.08l0.14 0.26c-0.05,-0.43 0.08,-0.22 -0.1,-0.3 -0.02,-0.02 -0.05,-0.05 -0.07,-0.06l-0.13 -0.11c-0.01,-0.01 -0.04,-0.03 -0.05,-0.04 -0.02,-0.01 -0.04,-0.02 -0.05,-0.03 0,0 -0.24,-0.05 -0.29,-0.05l-1.78 0.03c-0.31,-0.02 -0.06,0.03 -0.31,-0.06l0 0.22z"/>
   <path class="fil50" d="M40.36 22.64c0.3,-0.18 0.06,0.19 0.29,-0.29l0 -0.3c-0.59,-0.19 -0.54,0.01 -0.65,0.11l0.44 0.23c-0.1,0.09 -0.01,0.04 -0.08,0.25z"/>
   <polygon class="fil51" points="51.6,35.38 51.5,35.38 51.58,35.5 "/>
  </g>
 </g>
</svg>
