<?xml version="1.0" encoding="UTF-8"?>
<!DOCTYPE svg PUBLIC "-//W3C//DTD SVG 1.1//EN" "http://www.w3.org/Graphics/SVG/1.1/DTD/svg11.dtd">
<!-- Creator: CorelDRAW -->
<svg xmlns="http://www.w3.org/2000/svg" xml:space="preserve" width="30px" height="30px" version="1.1" style="shape-rendering:geometricPrecision; text-rendering:geometricPrecision; image-rendering:optimizeQuality; fill-rule:evenodd; clip-rule:evenodd"
viewBox="0 0 30 30"
 xmlns:xlink="http://www.w3.org/1999/xlink"
 xmlns:xodm="http://www.corel.com/coreldraw/odm/2003">
 <defs>
  <style type="text/css">
   <![CDATA[
    .fil0 {fill:#7A75B5}
   ]]>
  </style>
 </defs>
 <g id="Слой_x0020_1">
  <metadata id="CorelCorpID_0Corel-Layer"/>
 </g>
 <g id="Слой_x0020_1_0">
  <metadata id="CorelCorpID_1Corel-Layer"/>
 </g>
 <g id="Слой_x0020_1_1">
  <metadata id="CorelCorpID_2Corel-Layer"/>
 </g>
 <g id="Слой_x0020_1_2">
  <metadata id="CorelCorpID_3Corel-Layer"/>
  <path class="fil0" d="M9.86 12.5c0,0.69 1.39,2.74 1.84,3.25 0.1,0.11 0.14,0.17 0.23,0.28 0.11,0.11 0.14,0.18 0.26,0.3 0.18,0.19 0.29,0.34 0.48,0.52l1.56 1.52c0.57,0.5 1.78,1.44 2.39,1.76l0.65 0.35c1.18,0.59 1.19,0.31 2.5,-1.01 0.47,-0.47 1.11,-1.27 1.76,-1.27 0.52,0 0.93,0.48 1.22,0.77 0.51,0.52 2.77,2.63 2.93,3.14 0.2,0.6 -0.11,1 -0.46,1.34 -0.38,0.38 -1.75,1.82 -2.03,2.02 -1.68,1.25 -4.86,-0.16 -6.42,-0.94l-1.37 -0.75c-1.25,-0.73 -1.98,-1.27 -3.1,-2.19 -0.58,-0.47 -1.16,-0.97 -1.65,-1.52l-1.04 -1.08c-0.63,-0.64 -2.23,-2.82 -2.7,-3.65 -0.54,-0.92 -0.98,-1.75 -1.4,-2.82 -0.59,-1.47 -1.46,-4.02 -0.04,-5.42 0.26,-0.25 1.9,-1.95 2.12,-2.08 1.02,-0.58 1.56,0.31 2.52,1.27 0.48,0.48 0.92,0.92 1.39,1.39 0.91,0.91 1.46,1.37 0.3,2.53l-1.43 1.38c-0.24,0.24 -0.51,0.45 -0.51,0.91l0 0zm-6.36 -3.74c0,1.82 0.25,2.64 0.87,4.21 0.22,0.54 0.42,1 0.68,1.52l0.8 1.45c0.6,0.92 1.09,1.75 1.83,2.64l1.26 1.49c0.13,0.13 0.15,0.16 0.26,0.3 0.26,0.33 1.61,1.59 2,1.91l0.94 0.76c1.06,0.79 1.55,1.13 2.66,1.81 1.45,0.87 4.34,2.32 6.59,2.32 0.92,0 1.57,-0.11 2.27,-0.54 0.26,-0.17 0.45,-0.31 0.66,-0.53 0.12,-0.11 0.2,-0.19 0.3,-0.29 0.14,-0.14 0.18,-0.22 0.3,-0.36 1.04,-1.17 2.04,-1.55 2.04,-3.11 0,-0.5 -0.28,-1.11 -0.56,-1.42 -0.89,-0.94 -2.12,-2.23 -3.04,-3.08l-0.74 -0.59c-1.14,-0.69 -2.28,-0.09 -3.09,0.73l-1.5 1.5c-0.36,-0.19 -0.73,-0.38 -1.09,-0.59 -0.18,-0.11 -0.36,-0.23 -0.53,-0.36l-2.75 -2.4 -1.2 -1.41c-0.61,-0.75 -0.89,-1.32 -1.33,-2.14 0.2,-0.27 1.53,-1.48 1.84,-1.85 0.07,-0.09 0.07,-0.11 0.16,-0.21 0.06,-0.07 0.11,-0.11 0.16,-0.2 0.33,-0.5 0.38,-0.84 0.38,-1.42 0,-0.71 -0.53,-1.33 -0.91,-1.7 -0.46,-0.47 -2.67,-2.71 -2.98,-2.96 -0.56,-0.44 -0.82,-0.62 -1.67,-0.62 -1.2,0 -2.09,1.19 -2.89,1.99 -0.41,0.4 -0.85,0.78 -1.15,1.29 -0.28,0.47 -0.57,1.14 -0.57,1.86l0 0z"/>
 </g>
</svg>
