<?xml version="1.0" encoding="UTF-8"?>
<!DOCTYPE svg PUBLIC "-//W3C//DTD SVG 1.1//EN" "http://www.w3.org/Graphics/SVG/1.1/DTD/svg11.dtd">
<!-- Creator: CorelDRAW -->
<svg xmlns="http://www.w3.org/2000/svg" xml:space="preserve" width="32px" height="32px" version="1.1" style="shape-rendering:geometricPrecision; text-rendering:geometricPrecision; image-rendering:optimizeQuality; fill-rule:evenodd; clip-rule:evenodd"
viewBox="0 0 32 32"
 xmlns:xlink="http://www.w3.org/1999/xlink"
 xmlns:xodm="http://www.corel.com/coreldraw/odm/2003">
 <defs>
  <style type="text/css">
   <![CDATA[
    .fil0 {fill:#7A75B5}
   ]]>
  </style>
 </defs>
 <g id="Слой_x0020_1">
  <metadata id="CorelCorpID_0Corel-Layer"/>
  <path class="fil0" d="M20 22.98c-0.77,0 -1.28,-0.39 -1.85,-0.79l-2.94 -2.01c-1.77,-1.18 -1.54,-1.28 -0.14,-2.68l2.2 -2.08c0.27,-0.24 1.58,-1.45 1.58,-1.61 0,-0.14 -0.03,-0.15 -0.06,-0.27 -0.25,-0.06 -0.29,-0.04 -0.51,0.09l-4.13 2.72c-0.79,0.53 -2.2,1.63 -2.98,1.63 -0.97,0 -2.25,-0.44 -3.14,-0.75 -1.61,-0.59 -0.14,-1.21 0.58,-1.52l7.25 -3.13c1.33,-0.55 4.77,-2.05 5.82,-2.2 1.23,-0.17 0.82,1.53 0.72,2.31 -0.29,2.18 -0.73,4.86 -1.11,6.97 -0.12,0.67 -0.22,1.32 -0.35,1.95 -0.11,0.53 -0.35,1.37 -0.94,1.37l0 0zm-18 -7.52c0,2.11 0.11,3.26 0.81,5.23 1.23,3.57 3.91,6.34 7.25,7.99 1.31,0.65 3.56,1.32 5.49,1.32l0.08 0c1.55,0 2.29,-0.02 3.85,-0.4 0.47,-0.12 0.87,-0.25 1.31,-0.41 1.79,-0.62 2.9,-1.39 4.31,-2.48 2.81,-2.17 4.99,-6.57 4.99,-10.26 0,-2.54 -0.3,-4.37 -1.29,-6.44 -1.52,-3.17 -3.67,-5.22 -6.77,-6.79 -1.49,-0.75 -3.81,-1.31 -5.49,-1.31 -2.53,0 -4.36,0.3 -6.44,1.29 -0.79,0.38 -1.46,0.77 -2.14,1.26 -1.46,1.06 -2.76,2.32 -3.72,3.85 -0.12,0.19 -0.24,0.36 -0.34,0.54 -0.21,0.4 -0.38,0.74 -0.59,1.12 -0.17,0.35 -0.35,0.81 -0.5,1.2 -0.14,0.4 -0.28,0.84 -0.4,1.3 -0.21,0.85 -0.41,1.97 -0.41,2.99l0 0z"/>
 </g>
</svg>
