<?xml version="1.0" encoding="iso-8859-1"?>
<!-- Uploaded to: SVG Repo, www.svgrepo.com, Generator: SVG Repo Mixer Tools -->
<svg height="800px" width="800px" version="1.1" id="Layer_1" xmlns="http://www.w3.org/2000/svg" xmlns:xlink="http://www.w3.org/1999/xlink" 
	 viewBox="0 0 512 512" xml:space="preserve">
<path style="fill:#C7E9F4;" d="M511.918,171.331C508.478,63.176,400.286-8.093,300.671,27.715
	c-4.561,1.639-5.813,7.512-2.384,10.936l21.947,21.91c18.651,18.619-9.517,46.853-28.175,28.222
	c-39.815-39.749-36.038-35.928-37.085-37.115C154.498-26.36,4.208,41.607,0.082,171.331c-1.251,39.305,11.868,77.607,36.94,107.847
	c10.947,13.203,5.412,3.758,92.591,195.225c12.072,26.528,59.102,27.113,70.233-7.787c12.27-38.472,34.313-63.334,56.155-63.334
	c21.842,0,43.885,24.86,56.155,63.334c11.14,34.93,58.181,34.276,70.233,7.787c86.786-190.605,81.41-181.74,92.59-195.224
	C500.05,248.938,513.169,210.636,511.918,171.331z"/>
<g>
	<path style="fill:#80D0E1;" d="M92.791,232.845c-28.341-34.185-26.613-85.252,3.936-116.257
		c18.491-18.765,46.926,9.195,28.408,27.989c-16.359,16.603-17.081,44.195-1.643,62.814
		C140.407,227.794,109.417,252.896,92.791,232.845z"/>
	<path style="fill:#80D0E1;" d="M511.918,171.331C508.478,63.176,400.286-8.093,300.671,27.715
		c-4.561,1.639-5.813,7.512-2.384,10.936l21.947,21.91c18.652,18.619-9.517,46.853-28.175,28.222l-36.057-35.997v350.496
		c21.842,0,43.884,24.861,56.154,63.334c11.14,34.93,58.181,34.276,70.233,7.787c86.786-190.605,81.41-181.741,92.59-195.224
		C500.05,248.938,513.169,210.636,511.918,171.331z"/>
</g>
</svg>